G75*
%MOIN*%
%OFA0B0*%
%FSLAX25Y25*%
%IPPOS*%
%LPD*%
%AMOC8*
5,1,8,0,0,1.08239X$1,22.5*
%
%ADD10C,0.00000*%
D10*
X0011800Y0011800D02*
X0011800Y0208650D01*
X0208650Y0208650D01*
X0208650Y0011800D01*
X0011800Y0011800D01*
X0017312Y0021800D02*
X0017314Y0021958D01*
X0017320Y0022116D01*
X0017330Y0022274D01*
X0017344Y0022432D01*
X0017362Y0022589D01*
X0017383Y0022746D01*
X0017409Y0022902D01*
X0017439Y0023058D01*
X0017472Y0023213D01*
X0017510Y0023366D01*
X0017551Y0023519D01*
X0017596Y0023671D01*
X0017645Y0023822D01*
X0017698Y0023971D01*
X0017754Y0024119D01*
X0017814Y0024265D01*
X0017878Y0024410D01*
X0017946Y0024553D01*
X0018017Y0024695D01*
X0018091Y0024835D01*
X0018169Y0024972D01*
X0018251Y0025108D01*
X0018335Y0025242D01*
X0018424Y0025373D01*
X0018515Y0025502D01*
X0018610Y0025629D01*
X0018707Y0025754D01*
X0018808Y0025876D01*
X0018912Y0025995D01*
X0019019Y0026112D01*
X0019129Y0026226D01*
X0019242Y0026337D01*
X0019357Y0026446D01*
X0019475Y0026551D01*
X0019596Y0026653D01*
X0019719Y0026753D01*
X0019845Y0026849D01*
X0019973Y0026942D01*
X0020103Y0027032D01*
X0020236Y0027118D01*
X0020371Y0027202D01*
X0020507Y0027281D01*
X0020646Y0027358D01*
X0020787Y0027430D01*
X0020929Y0027500D01*
X0021073Y0027565D01*
X0021219Y0027627D01*
X0021366Y0027685D01*
X0021515Y0027740D01*
X0021665Y0027791D01*
X0021816Y0027838D01*
X0021968Y0027881D01*
X0022121Y0027920D01*
X0022276Y0027956D01*
X0022431Y0027987D01*
X0022587Y0028015D01*
X0022743Y0028039D01*
X0022900Y0028059D01*
X0023058Y0028075D01*
X0023215Y0028087D01*
X0023374Y0028095D01*
X0023532Y0028099D01*
X0023690Y0028099D01*
X0023848Y0028095D01*
X0024007Y0028087D01*
X0024164Y0028075D01*
X0024322Y0028059D01*
X0024479Y0028039D01*
X0024635Y0028015D01*
X0024791Y0027987D01*
X0024946Y0027956D01*
X0025101Y0027920D01*
X0025254Y0027881D01*
X0025406Y0027838D01*
X0025557Y0027791D01*
X0025707Y0027740D01*
X0025856Y0027685D01*
X0026003Y0027627D01*
X0026149Y0027565D01*
X0026293Y0027500D01*
X0026435Y0027430D01*
X0026576Y0027358D01*
X0026715Y0027281D01*
X0026851Y0027202D01*
X0026986Y0027118D01*
X0027119Y0027032D01*
X0027249Y0026942D01*
X0027377Y0026849D01*
X0027503Y0026753D01*
X0027626Y0026653D01*
X0027747Y0026551D01*
X0027865Y0026446D01*
X0027980Y0026337D01*
X0028093Y0026226D01*
X0028203Y0026112D01*
X0028310Y0025995D01*
X0028414Y0025876D01*
X0028515Y0025754D01*
X0028612Y0025629D01*
X0028707Y0025502D01*
X0028798Y0025373D01*
X0028887Y0025242D01*
X0028971Y0025108D01*
X0029053Y0024972D01*
X0029131Y0024835D01*
X0029205Y0024695D01*
X0029276Y0024553D01*
X0029344Y0024410D01*
X0029408Y0024265D01*
X0029468Y0024119D01*
X0029524Y0023971D01*
X0029577Y0023822D01*
X0029626Y0023671D01*
X0029671Y0023519D01*
X0029712Y0023366D01*
X0029750Y0023213D01*
X0029783Y0023058D01*
X0029813Y0022902D01*
X0029839Y0022746D01*
X0029860Y0022589D01*
X0029878Y0022432D01*
X0029892Y0022274D01*
X0029902Y0022116D01*
X0029908Y0021958D01*
X0029910Y0021800D01*
X0029908Y0021642D01*
X0029902Y0021484D01*
X0029892Y0021326D01*
X0029878Y0021168D01*
X0029860Y0021011D01*
X0029839Y0020854D01*
X0029813Y0020698D01*
X0029783Y0020542D01*
X0029750Y0020387D01*
X0029712Y0020234D01*
X0029671Y0020081D01*
X0029626Y0019929D01*
X0029577Y0019778D01*
X0029524Y0019629D01*
X0029468Y0019481D01*
X0029408Y0019335D01*
X0029344Y0019190D01*
X0029276Y0019047D01*
X0029205Y0018905D01*
X0029131Y0018765D01*
X0029053Y0018628D01*
X0028971Y0018492D01*
X0028887Y0018358D01*
X0028798Y0018227D01*
X0028707Y0018098D01*
X0028612Y0017971D01*
X0028515Y0017846D01*
X0028414Y0017724D01*
X0028310Y0017605D01*
X0028203Y0017488D01*
X0028093Y0017374D01*
X0027980Y0017263D01*
X0027865Y0017154D01*
X0027747Y0017049D01*
X0027626Y0016947D01*
X0027503Y0016847D01*
X0027377Y0016751D01*
X0027249Y0016658D01*
X0027119Y0016568D01*
X0026986Y0016482D01*
X0026851Y0016398D01*
X0026715Y0016319D01*
X0026576Y0016242D01*
X0026435Y0016170D01*
X0026293Y0016100D01*
X0026149Y0016035D01*
X0026003Y0015973D01*
X0025856Y0015915D01*
X0025707Y0015860D01*
X0025557Y0015809D01*
X0025406Y0015762D01*
X0025254Y0015719D01*
X0025101Y0015680D01*
X0024946Y0015644D01*
X0024791Y0015613D01*
X0024635Y0015585D01*
X0024479Y0015561D01*
X0024322Y0015541D01*
X0024164Y0015525D01*
X0024007Y0015513D01*
X0023848Y0015505D01*
X0023690Y0015501D01*
X0023532Y0015501D01*
X0023374Y0015505D01*
X0023215Y0015513D01*
X0023058Y0015525D01*
X0022900Y0015541D01*
X0022743Y0015561D01*
X0022587Y0015585D01*
X0022431Y0015613D01*
X0022276Y0015644D01*
X0022121Y0015680D01*
X0021968Y0015719D01*
X0021816Y0015762D01*
X0021665Y0015809D01*
X0021515Y0015860D01*
X0021366Y0015915D01*
X0021219Y0015973D01*
X0021073Y0016035D01*
X0020929Y0016100D01*
X0020787Y0016170D01*
X0020646Y0016242D01*
X0020507Y0016319D01*
X0020371Y0016398D01*
X0020236Y0016482D01*
X0020103Y0016568D01*
X0019973Y0016658D01*
X0019845Y0016751D01*
X0019719Y0016847D01*
X0019596Y0016947D01*
X0019475Y0017049D01*
X0019357Y0017154D01*
X0019242Y0017263D01*
X0019129Y0017374D01*
X0019019Y0017488D01*
X0018912Y0017605D01*
X0018808Y0017724D01*
X0018707Y0017846D01*
X0018610Y0017971D01*
X0018515Y0018098D01*
X0018424Y0018227D01*
X0018335Y0018358D01*
X0018251Y0018492D01*
X0018169Y0018628D01*
X0018091Y0018765D01*
X0018017Y0018905D01*
X0017946Y0019047D01*
X0017878Y0019190D01*
X0017814Y0019335D01*
X0017754Y0019481D01*
X0017698Y0019629D01*
X0017645Y0019778D01*
X0017596Y0019929D01*
X0017551Y0020081D01*
X0017510Y0020234D01*
X0017472Y0020387D01*
X0017439Y0020542D01*
X0017409Y0020698D01*
X0017383Y0020854D01*
X0017362Y0021011D01*
X0017344Y0021168D01*
X0017330Y0021326D01*
X0017320Y0021484D01*
X0017314Y0021642D01*
X0017312Y0021800D01*
X0017312Y0196839D02*
X0017314Y0196997D01*
X0017320Y0197155D01*
X0017330Y0197313D01*
X0017344Y0197471D01*
X0017362Y0197628D01*
X0017383Y0197785D01*
X0017409Y0197941D01*
X0017439Y0198097D01*
X0017472Y0198252D01*
X0017510Y0198405D01*
X0017551Y0198558D01*
X0017596Y0198710D01*
X0017645Y0198861D01*
X0017698Y0199010D01*
X0017754Y0199158D01*
X0017814Y0199304D01*
X0017878Y0199449D01*
X0017946Y0199592D01*
X0018017Y0199734D01*
X0018091Y0199874D01*
X0018169Y0200011D01*
X0018251Y0200147D01*
X0018335Y0200281D01*
X0018424Y0200412D01*
X0018515Y0200541D01*
X0018610Y0200668D01*
X0018707Y0200793D01*
X0018808Y0200915D01*
X0018912Y0201034D01*
X0019019Y0201151D01*
X0019129Y0201265D01*
X0019242Y0201376D01*
X0019357Y0201485D01*
X0019475Y0201590D01*
X0019596Y0201692D01*
X0019719Y0201792D01*
X0019845Y0201888D01*
X0019973Y0201981D01*
X0020103Y0202071D01*
X0020236Y0202157D01*
X0020371Y0202241D01*
X0020507Y0202320D01*
X0020646Y0202397D01*
X0020787Y0202469D01*
X0020929Y0202539D01*
X0021073Y0202604D01*
X0021219Y0202666D01*
X0021366Y0202724D01*
X0021515Y0202779D01*
X0021665Y0202830D01*
X0021816Y0202877D01*
X0021968Y0202920D01*
X0022121Y0202959D01*
X0022276Y0202995D01*
X0022431Y0203026D01*
X0022587Y0203054D01*
X0022743Y0203078D01*
X0022900Y0203098D01*
X0023058Y0203114D01*
X0023215Y0203126D01*
X0023374Y0203134D01*
X0023532Y0203138D01*
X0023690Y0203138D01*
X0023848Y0203134D01*
X0024007Y0203126D01*
X0024164Y0203114D01*
X0024322Y0203098D01*
X0024479Y0203078D01*
X0024635Y0203054D01*
X0024791Y0203026D01*
X0024946Y0202995D01*
X0025101Y0202959D01*
X0025254Y0202920D01*
X0025406Y0202877D01*
X0025557Y0202830D01*
X0025707Y0202779D01*
X0025856Y0202724D01*
X0026003Y0202666D01*
X0026149Y0202604D01*
X0026293Y0202539D01*
X0026435Y0202469D01*
X0026576Y0202397D01*
X0026715Y0202320D01*
X0026851Y0202241D01*
X0026986Y0202157D01*
X0027119Y0202071D01*
X0027249Y0201981D01*
X0027377Y0201888D01*
X0027503Y0201792D01*
X0027626Y0201692D01*
X0027747Y0201590D01*
X0027865Y0201485D01*
X0027980Y0201376D01*
X0028093Y0201265D01*
X0028203Y0201151D01*
X0028310Y0201034D01*
X0028414Y0200915D01*
X0028515Y0200793D01*
X0028612Y0200668D01*
X0028707Y0200541D01*
X0028798Y0200412D01*
X0028887Y0200281D01*
X0028971Y0200147D01*
X0029053Y0200011D01*
X0029131Y0199874D01*
X0029205Y0199734D01*
X0029276Y0199592D01*
X0029344Y0199449D01*
X0029408Y0199304D01*
X0029468Y0199158D01*
X0029524Y0199010D01*
X0029577Y0198861D01*
X0029626Y0198710D01*
X0029671Y0198558D01*
X0029712Y0198405D01*
X0029750Y0198252D01*
X0029783Y0198097D01*
X0029813Y0197941D01*
X0029839Y0197785D01*
X0029860Y0197628D01*
X0029878Y0197471D01*
X0029892Y0197313D01*
X0029902Y0197155D01*
X0029908Y0196997D01*
X0029910Y0196839D01*
X0029908Y0196681D01*
X0029902Y0196523D01*
X0029892Y0196365D01*
X0029878Y0196207D01*
X0029860Y0196050D01*
X0029839Y0195893D01*
X0029813Y0195737D01*
X0029783Y0195581D01*
X0029750Y0195426D01*
X0029712Y0195273D01*
X0029671Y0195120D01*
X0029626Y0194968D01*
X0029577Y0194817D01*
X0029524Y0194668D01*
X0029468Y0194520D01*
X0029408Y0194374D01*
X0029344Y0194229D01*
X0029276Y0194086D01*
X0029205Y0193944D01*
X0029131Y0193804D01*
X0029053Y0193667D01*
X0028971Y0193531D01*
X0028887Y0193397D01*
X0028798Y0193266D01*
X0028707Y0193137D01*
X0028612Y0193010D01*
X0028515Y0192885D01*
X0028414Y0192763D01*
X0028310Y0192644D01*
X0028203Y0192527D01*
X0028093Y0192413D01*
X0027980Y0192302D01*
X0027865Y0192193D01*
X0027747Y0192088D01*
X0027626Y0191986D01*
X0027503Y0191886D01*
X0027377Y0191790D01*
X0027249Y0191697D01*
X0027119Y0191607D01*
X0026986Y0191521D01*
X0026851Y0191437D01*
X0026715Y0191358D01*
X0026576Y0191281D01*
X0026435Y0191209D01*
X0026293Y0191139D01*
X0026149Y0191074D01*
X0026003Y0191012D01*
X0025856Y0190954D01*
X0025707Y0190899D01*
X0025557Y0190848D01*
X0025406Y0190801D01*
X0025254Y0190758D01*
X0025101Y0190719D01*
X0024946Y0190683D01*
X0024791Y0190652D01*
X0024635Y0190624D01*
X0024479Y0190600D01*
X0024322Y0190580D01*
X0024164Y0190564D01*
X0024007Y0190552D01*
X0023848Y0190544D01*
X0023690Y0190540D01*
X0023532Y0190540D01*
X0023374Y0190544D01*
X0023215Y0190552D01*
X0023058Y0190564D01*
X0022900Y0190580D01*
X0022743Y0190600D01*
X0022587Y0190624D01*
X0022431Y0190652D01*
X0022276Y0190683D01*
X0022121Y0190719D01*
X0021968Y0190758D01*
X0021816Y0190801D01*
X0021665Y0190848D01*
X0021515Y0190899D01*
X0021366Y0190954D01*
X0021219Y0191012D01*
X0021073Y0191074D01*
X0020929Y0191139D01*
X0020787Y0191209D01*
X0020646Y0191281D01*
X0020507Y0191358D01*
X0020371Y0191437D01*
X0020236Y0191521D01*
X0020103Y0191607D01*
X0019973Y0191697D01*
X0019845Y0191790D01*
X0019719Y0191886D01*
X0019596Y0191986D01*
X0019475Y0192088D01*
X0019357Y0192193D01*
X0019242Y0192302D01*
X0019129Y0192413D01*
X0019019Y0192527D01*
X0018912Y0192644D01*
X0018808Y0192763D01*
X0018707Y0192885D01*
X0018610Y0193010D01*
X0018515Y0193137D01*
X0018424Y0193266D01*
X0018335Y0193397D01*
X0018251Y0193531D01*
X0018169Y0193667D01*
X0018091Y0193804D01*
X0018017Y0193944D01*
X0017946Y0194086D01*
X0017878Y0194229D01*
X0017814Y0194374D01*
X0017754Y0194520D01*
X0017698Y0194668D01*
X0017645Y0194817D01*
X0017596Y0194968D01*
X0017551Y0195120D01*
X0017510Y0195273D01*
X0017472Y0195426D01*
X0017439Y0195581D01*
X0017409Y0195737D01*
X0017383Y0195893D01*
X0017362Y0196050D01*
X0017344Y0196207D01*
X0017330Y0196365D01*
X0017320Y0196523D01*
X0017314Y0196681D01*
X0017312Y0196839D01*
X0190540Y0196839D02*
X0190542Y0196997D01*
X0190548Y0197155D01*
X0190558Y0197313D01*
X0190572Y0197471D01*
X0190590Y0197628D01*
X0190611Y0197785D01*
X0190637Y0197941D01*
X0190667Y0198097D01*
X0190700Y0198252D01*
X0190738Y0198405D01*
X0190779Y0198558D01*
X0190824Y0198710D01*
X0190873Y0198861D01*
X0190926Y0199010D01*
X0190982Y0199158D01*
X0191042Y0199304D01*
X0191106Y0199449D01*
X0191174Y0199592D01*
X0191245Y0199734D01*
X0191319Y0199874D01*
X0191397Y0200011D01*
X0191479Y0200147D01*
X0191563Y0200281D01*
X0191652Y0200412D01*
X0191743Y0200541D01*
X0191838Y0200668D01*
X0191935Y0200793D01*
X0192036Y0200915D01*
X0192140Y0201034D01*
X0192247Y0201151D01*
X0192357Y0201265D01*
X0192470Y0201376D01*
X0192585Y0201485D01*
X0192703Y0201590D01*
X0192824Y0201692D01*
X0192947Y0201792D01*
X0193073Y0201888D01*
X0193201Y0201981D01*
X0193331Y0202071D01*
X0193464Y0202157D01*
X0193599Y0202241D01*
X0193735Y0202320D01*
X0193874Y0202397D01*
X0194015Y0202469D01*
X0194157Y0202539D01*
X0194301Y0202604D01*
X0194447Y0202666D01*
X0194594Y0202724D01*
X0194743Y0202779D01*
X0194893Y0202830D01*
X0195044Y0202877D01*
X0195196Y0202920D01*
X0195349Y0202959D01*
X0195504Y0202995D01*
X0195659Y0203026D01*
X0195815Y0203054D01*
X0195971Y0203078D01*
X0196128Y0203098D01*
X0196286Y0203114D01*
X0196443Y0203126D01*
X0196602Y0203134D01*
X0196760Y0203138D01*
X0196918Y0203138D01*
X0197076Y0203134D01*
X0197235Y0203126D01*
X0197392Y0203114D01*
X0197550Y0203098D01*
X0197707Y0203078D01*
X0197863Y0203054D01*
X0198019Y0203026D01*
X0198174Y0202995D01*
X0198329Y0202959D01*
X0198482Y0202920D01*
X0198634Y0202877D01*
X0198785Y0202830D01*
X0198935Y0202779D01*
X0199084Y0202724D01*
X0199231Y0202666D01*
X0199377Y0202604D01*
X0199521Y0202539D01*
X0199663Y0202469D01*
X0199804Y0202397D01*
X0199943Y0202320D01*
X0200079Y0202241D01*
X0200214Y0202157D01*
X0200347Y0202071D01*
X0200477Y0201981D01*
X0200605Y0201888D01*
X0200731Y0201792D01*
X0200854Y0201692D01*
X0200975Y0201590D01*
X0201093Y0201485D01*
X0201208Y0201376D01*
X0201321Y0201265D01*
X0201431Y0201151D01*
X0201538Y0201034D01*
X0201642Y0200915D01*
X0201743Y0200793D01*
X0201840Y0200668D01*
X0201935Y0200541D01*
X0202026Y0200412D01*
X0202115Y0200281D01*
X0202199Y0200147D01*
X0202281Y0200011D01*
X0202359Y0199874D01*
X0202433Y0199734D01*
X0202504Y0199592D01*
X0202572Y0199449D01*
X0202636Y0199304D01*
X0202696Y0199158D01*
X0202752Y0199010D01*
X0202805Y0198861D01*
X0202854Y0198710D01*
X0202899Y0198558D01*
X0202940Y0198405D01*
X0202978Y0198252D01*
X0203011Y0198097D01*
X0203041Y0197941D01*
X0203067Y0197785D01*
X0203088Y0197628D01*
X0203106Y0197471D01*
X0203120Y0197313D01*
X0203130Y0197155D01*
X0203136Y0196997D01*
X0203138Y0196839D01*
X0203136Y0196681D01*
X0203130Y0196523D01*
X0203120Y0196365D01*
X0203106Y0196207D01*
X0203088Y0196050D01*
X0203067Y0195893D01*
X0203041Y0195737D01*
X0203011Y0195581D01*
X0202978Y0195426D01*
X0202940Y0195273D01*
X0202899Y0195120D01*
X0202854Y0194968D01*
X0202805Y0194817D01*
X0202752Y0194668D01*
X0202696Y0194520D01*
X0202636Y0194374D01*
X0202572Y0194229D01*
X0202504Y0194086D01*
X0202433Y0193944D01*
X0202359Y0193804D01*
X0202281Y0193667D01*
X0202199Y0193531D01*
X0202115Y0193397D01*
X0202026Y0193266D01*
X0201935Y0193137D01*
X0201840Y0193010D01*
X0201743Y0192885D01*
X0201642Y0192763D01*
X0201538Y0192644D01*
X0201431Y0192527D01*
X0201321Y0192413D01*
X0201208Y0192302D01*
X0201093Y0192193D01*
X0200975Y0192088D01*
X0200854Y0191986D01*
X0200731Y0191886D01*
X0200605Y0191790D01*
X0200477Y0191697D01*
X0200347Y0191607D01*
X0200214Y0191521D01*
X0200079Y0191437D01*
X0199943Y0191358D01*
X0199804Y0191281D01*
X0199663Y0191209D01*
X0199521Y0191139D01*
X0199377Y0191074D01*
X0199231Y0191012D01*
X0199084Y0190954D01*
X0198935Y0190899D01*
X0198785Y0190848D01*
X0198634Y0190801D01*
X0198482Y0190758D01*
X0198329Y0190719D01*
X0198174Y0190683D01*
X0198019Y0190652D01*
X0197863Y0190624D01*
X0197707Y0190600D01*
X0197550Y0190580D01*
X0197392Y0190564D01*
X0197235Y0190552D01*
X0197076Y0190544D01*
X0196918Y0190540D01*
X0196760Y0190540D01*
X0196602Y0190544D01*
X0196443Y0190552D01*
X0196286Y0190564D01*
X0196128Y0190580D01*
X0195971Y0190600D01*
X0195815Y0190624D01*
X0195659Y0190652D01*
X0195504Y0190683D01*
X0195349Y0190719D01*
X0195196Y0190758D01*
X0195044Y0190801D01*
X0194893Y0190848D01*
X0194743Y0190899D01*
X0194594Y0190954D01*
X0194447Y0191012D01*
X0194301Y0191074D01*
X0194157Y0191139D01*
X0194015Y0191209D01*
X0193874Y0191281D01*
X0193735Y0191358D01*
X0193599Y0191437D01*
X0193464Y0191521D01*
X0193331Y0191607D01*
X0193201Y0191697D01*
X0193073Y0191790D01*
X0192947Y0191886D01*
X0192824Y0191986D01*
X0192703Y0192088D01*
X0192585Y0192193D01*
X0192470Y0192302D01*
X0192357Y0192413D01*
X0192247Y0192527D01*
X0192140Y0192644D01*
X0192036Y0192763D01*
X0191935Y0192885D01*
X0191838Y0193010D01*
X0191743Y0193137D01*
X0191652Y0193266D01*
X0191563Y0193397D01*
X0191479Y0193531D01*
X0191397Y0193667D01*
X0191319Y0193804D01*
X0191245Y0193944D01*
X0191174Y0194086D01*
X0191106Y0194229D01*
X0191042Y0194374D01*
X0190982Y0194520D01*
X0190926Y0194668D01*
X0190873Y0194817D01*
X0190824Y0194968D01*
X0190779Y0195120D01*
X0190738Y0195273D01*
X0190700Y0195426D01*
X0190667Y0195581D01*
X0190637Y0195737D01*
X0190611Y0195893D01*
X0190590Y0196050D01*
X0190572Y0196207D01*
X0190558Y0196365D01*
X0190548Y0196523D01*
X0190542Y0196681D01*
X0190540Y0196839D01*
X0190540Y0021800D02*
X0190542Y0021958D01*
X0190548Y0022116D01*
X0190558Y0022274D01*
X0190572Y0022432D01*
X0190590Y0022589D01*
X0190611Y0022746D01*
X0190637Y0022902D01*
X0190667Y0023058D01*
X0190700Y0023213D01*
X0190738Y0023366D01*
X0190779Y0023519D01*
X0190824Y0023671D01*
X0190873Y0023822D01*
X0190926Y0023971D01*
X0190982Y0024119D01*
X0191042Y0024265D01*
X0191106Y0024410D01*
X0191174Y0024553D01*
X0191245Y0024695D01*
X0191319Y0024835D01*
X0191397Y0024972D01*
X0191479Y0025108D01*
X0191563Y0025242D01*
X0191652Y0025373D01*
X0191743Y0025502D01*
X0191838Y0025629D01*
X0191935Y0025754D01*
X0192036Y0025876D01*
X0192140Y0025995D01*
X0192247Y0026112D01*
X0192357Y0026226D01*
X0192470Y0026337D01*
X0192585Y0026446D01*
X0192703Y0026551D01*
X0192824Y0026653D01*
X0192947Y0026753D01*
X0193073Y0026849D01*
X0193201Y0026942D01*
X0193331Y0027032D01*
X0193464Y0027118D01*
X0193599Y0027202D01*
X0193735Y0027281D01*
X0193874Y0027358D01*
X0194015Y0027430D01*
X0194157Y0027500D01*
X0194301Y0027565D01*
X0194447Y0027627D01*
X0194594Y0027685D01*
X0194743Y0027740D01*
X0194893Y0027791D01*
X0195044Y0027838D01*
X0195196Y0027881D01*
X0195349Y0027920D01*
X0195504Y0027956D01*
X0195659Y0027987D01*
X0195815Y0028015D01*
X0195971Y0028039D01*
X0196128Y0028059D01*
X0196286Y0028075D01*
X0196443Y0028087D01*
X0196602Y0028095D01*
X0196760Y0028099D01*
X0196918Y0028099D01*
X0197076Y0028095D01*
X0197235Y0028087D01*
X0197392Y0028075D01*
X0197550Y0028059D01*
X0197707Y0028039D01*
X0197863Y0028015D01*
X0198019Y0027987D01*
X0198174Y0027956D01*
X0198329Y0027920D01*
X0198482Y0027881D01*
X0198634Y0027838D01*
X0198785Y0027791D01*
X0198935Y0027740D01*
X0199084Y0027685D01*
X0199231Y0027627D01*
X0199377Y0027565D01*
X0199521Y0027500D01*
X0199663Y0027430D01*
X0199804Y0027358D01*
X0199943Y0027281D01*
X0200079Y0027202D01*
X0200214Y0027118D01*
X0200347Y0027032D01*
X0200477Y0026942D01*
X0200605Y0026849D01*
X0200731Y0026753D01*
X0200854Y0026653D01*
X0200975Y0026551D01*
X0201093Y0026446D01*
X0201208Y0026337D01*
X0201321Y0026226D01*
X0201431Y0026112D01*
X0201538Y0025995D01*
X0201642Y0025876D01*
X0201743Y0025754D01*
X0201840Y0025629D01*
X0201935Y0025502D01*
X0202026Y0025373D01*
X0202115Y0025242D01*
X0202199Y0025108D01*
X0202281Y0024972D01*
X0202359Y0024835D01*
X0202433Y0024695D01*
X0202504Y0024553D01*
X0202572Y0024410D01*
X0202636Y0024265D01*
X0202696Y0024119D01*
X0202752Y0023971D01*
X0202805Y0023822D01*
X0202854Y0023671D01*
X0202899Y0023519D01*
X0202940Y0023366D01*
X0202978Y0023213D01*
X0203011Y0023058D01*
X0203041Y0022902D01*
X0203067Y0022746D01*
X0203088Y0022589D01*
X0203106Y0022432D01*
X0203120Y0022274D01*
X0203130Y0022116D01*
X0203136Y0021958D01*
X0203138Y0021800D01*
X0203136Y0021642D01*
X0203130Y0021484D01*
X0203120Y0021326D01*
X0203106Y0021168D01*
X0203088Y0021011D01*
X0203067Y0020854D01*
X0203041Y0020698D01*
X0203011Y0020542D01*
X0202978Y0020387D01*
X0202940Y0020234D01*
X0202899Y0020081D01*
X0202854Y0019929D01*
X0202805Y0019778D01*
X0202752Y0019629D01*
X0202696Y0019481D01*
X0202636Y0019335D01*
X0202572Y0019190D01*
X0202504Y0019047D01*
X0202433Y0018905D01*
X0202359Y0018765D01*
X0202281Y0018628D01*
X0202199Y0018492D01*
X0202115Y0018358D01*
X0202026Y0018227D01*
X0201935Y0018098D01*
X0201840Y0017971D01*
X0201743Y0017846D01*
X0201642Y0017724D01*
X0201538Y0017605D01*
X0201431Y0017488D01*
X0201321Y0017374D01*
X0201208Y0017263D01*
X0201093Y0017154D01*
X0200975Y0017049D01*
X0200854Y0016947D01*
X0200731Y0016847D01*
X0200605Y0016751D01*
X0200477Y0016658D01*
X0200347Y0016568D01*
X0200214Y0016482D01*
X0200079Y0016398D01*
X0199943Y0016319D01*
X0199804Y0016242D01*
X0199663Y0016170D01*
X0199521Y0016100D01*
X0199377Y0016035D01*
X0199231Y0015973D01*
X0199084Y0015915D01*
X0198935Y0015860D01*
X0198785Y0015809D01*
X0198634Y0015762D01*
X0198482Y0015719D01*
X0198329Y0015680D01*
X0198174Y0015644D01*
X0198019Y0015613D01*
X0197863Y0015585D01*
X0197707Y0015561D01*
X0197550Y0015541D01*
X0197392Y0015525D01*
X0197235Y0015513D01*
X0197076Y0015505D01*
X0196918Y0015501D01*
X0196760Y0015501D01*
X0196602Y0015505D01*
X0196443Y0015513D01*
X0196286Y0015525D01*
X0196128Y0015541D01*
X0195971Y0015561D01*
X0195815Y0015585D01*
X0195659Y0015613D01*
X0195504Y0015644D01*
X0195349Y0015680D01*
X0195196Y0015719D01*
X0195044Y0015762D01*
X0194893Y0015809D01*
X0194743Y0015860D01*
X0194594Y0015915D01*
X0194447Y0015973D01*
X0194301Y0016035D01*
X0194157Y0016100D01*
X0194015Y0016170D01*
X0193874Y0016242D01*
X0193735Y0016319D01*
X0193599Y0016398D01*
X0193464Y0016482D01*
X0193331Y0016568D01*
X0193201Y0016658D01*
X0193073Y0016751D01*
X0192947Y0016847D01*
X0192824Y0016947D01*
X0192703Y0017049D01*
X0192585Y0017154D01*
X0192470Y0017263D01*
X0192357Y0017374D01*
X0192247Y0017488D01*
X0192140Y0017605D01*
X0192036Y0017724D01*
X0191935Y0017846D01*
X0191838Y0017971D01*
X0191743Y0018098D01*
X0191652Y0018227D01*
X0191563Y0018358D01*
X0191479Y0018492D01*
X0191397Y0018628D01*
X0191319Y0018765D01*
X0191245Y0018905D01*
X0191174Y0019047D01*
X0191106Y0019190D01*
X0191042Y0019335D01*
X0190982Y0019481D01*
X0190926Y0019629D01*
X0190873Y0019778D01*
X0190824Y0019929D01*
X0190779Y0020081D01*
X0190738Y0020234D01*
X0190700Y0020387D01*
X0190667Y0020542D01*
X0190637Y0020698D01*
X0190611Y0020854D01*
X0190590Y0021011D01*
X0190572Y0021168D01*
X0190558Y0021326D01*
X0190548Y0021484D01*
X0190542Y0021642D01*
X0190540Y0021800D01*
M02*
