G75*
%MOIN*%
%OFA0B0*%
%FSLAX25Y25*%
%IPPOS*%
%LPD*%
%AMOC8*
5,1,8,0,0,1.08239X$1,22.5*
%
%ADD10C,0.00000*%
%ADD11C,0.00600*%
%ADD12C,0.00400*%
%ADD13C,0.01200*%
%ADD14C,0.00500*%
%ADD15C,0.00700*%
%ADD16C,0.01000*%
%ADD17R,0.15000X0.03000*%
D10*
X0011800Y0011800D02*
X0011800Y0208650D01*
X0208650Y0208650D01*
X0208650Y0011800D01*
X0011800Y0011800D01*
X0017312Y0021800D02*
X0017314Y0021958D01*
X0017320Y0022116D01*
X0017330Y0022274D01*
X0017344Y0022432D01*
X0017362Y0022589D01*
X0017383Y0022746D01*
X0017409Y0022902D01*
X0017439Y0023058D01*
X0017472Y0023213D01*
X0017510Y0023366D01*
X0017551Y0023519D01*
X0017596Y0023671D01*
X0017645Y0023822D01*
X0017698Y0023971D01*
X0017754Y0024119D01*
X0017814Y0024265D01*
X0017878Y0024410D01*
X0017946Y0024553D01*
X0018017Y0024695D01*
X0018091Y0024835D01*
X0018169Y0024972D01*
X0018251Y0025108D01*
X0018335Y0025242D01*
X0018424Y0025373D01*
X0018515Y0025502D01*
X0018610Y0025629D01*
X0018707Y0025754D01*
X0018808Y0025876D01*
X0018912Y0025995D01*
X0019019Y0026112D01*
X0019129Y0026226D01*
X0019242Y0026337D01*
X0019357Y0026446D01*
X0019475Y0026551D01*
X0019596Y0026653D01*
X0019719Y0026753D01*
X0019845Y0026849D01*
X0019973Y0026942D01*
X0020103Y0027032D01*
X0020236Y0027118D01*
X0020371Y0027202D01*
X0020507Y0027281D01*
X0020646Y0027358D01*
X0020787Y0027430D01*
X0020929Y0027500D01*
X0021073Y0027565D01*
X0021219Y0027627D01*
X0021366Y0027685D01*
X0021515Y0027740D01*
X0021665Y0027791D01*
X0021816Y0027838D01*
X0021968Y0027881D01*
X0022121Y0027920D01*
X0022276Y0027956D01*
X0022431Y0027987D01*
X0022587Y0028015D01*
X0022743Y0028039D01*
X0022900Y0028059D01*
X0023058Y0028075D01*
X0023215Y0028087D01*
X0023374Y0028095D01*
X0023532Y0028099D01*
X0023690Y0028099D01*
X0023848Y0028095D01*
X0024007Y0028087D01*
X0024164Y0028075D01*
X0024322Y0028059D01*
X0024479Y0028039D01*
X0024635Y0028015D01*
X0024791Y0027987D01*
X0024946Y0027956D01*
X0025101Y0027920D01*
X0025254Y0027881D01*
X0025406Y0027838D01*
X0025557Y0027791D01*
X0025707Y0027740D01*
X0025856Y0027685D01*
X0026003Y0027627D01*
X0026149Y0027565D01*
X0026293Y0027500D01*
X0026435Y0027430D01*
X0026576Y0027358D01*
X0026715Y0027281D01*
X0026851Y0027202D01*
X0026986Y0027118D01*
X0027119Y0027032D01*
X0027249Y0026942D01*
X0027377Y0026849D01*
X0027503Y0026753D01*
X0027626Y0026653D01*
X0027747Y0026551D01*
X0027865Y0026446D01*
X0027980Y0026337D01*
X0028093Y0026226D01*
X0028203Y0026112D01*
X0028310Y0025995D01*
X0028414Y0025876D01*
X0028515Y0025754D01*
X0028612Y0025629D01*
X0028707Y0025502D01*
X0028798Y0025373D01*
X0028887Y0025242D01*
X0028971Y0025108D01*
X0029053Y0024972D01*
X0029131Y0024835D01*
X0029205Y0024695D01*
X0029276Y0024553D01*
X0029344Y0024410D01*
X0029408Y0024265D01*
X0029468Y0024119D01*
X0029524Y0023971D01*
X0029577Y0023822D01*
X0029626Y0023671D01*
X0029671Y0023519D01*
X0029712Y0023366D01*
X0029750Y0023213D01*
X0029783Y0023058D01*
X0029813Y0022902D01*
X0029839Y0022746D01*
X0029860Y0022589D01*
X0029878Y0022432D01*
X0029892Y0022274D01*
X0029902Y0022116D01*
X0029908Y0021958D01*
X0029910Y0021800D01*
X0029908Y0021642D01*
X0029902Y0021484D01*
X0029892Y0021326D01*
X0029878Y0021168D01*
X0029860Y0021011D01*
X0029839Y0020854D01*
X0029813Y0020698D01*
X0029783Y0020542D01*
X0029750Y0020387D01*
X0029712Y0020234D01*
X0029671Y0020081D01*
X0029626Y0019929D01*
X0029577Y0019778D01*
X0029524Y0019629D01*
X0029468Y0019481D01*
X0029408Y0019335D01*
X0029344Y0019190D01*
X0029276Y0019047D01*
X0029205Y0018905D01*
X0029131Y0018765D01*
X0029053Y0018628D01*
X0028971Y0018492D01*
X0028887Y0018358D01*
X0028798Y0018227D01*
X0028707Y0018098D01*
X0028612Y0017971D01*
X0028515Y0017846D01*
X0028414Y0017724D01*
X0028310Y0017605D01*
X0028203Y0017488D01*
X0028093Y0017374D01*
X0027980Y0017263D01*
X0027865Y0017154D01*
X0027747Y0017049D01*
X0027626Y0016947D01*
X0027503Y0016847D01*
X0027377Y0016751D01*
X0027249Y0016658D01*
X0027119Y0016568D01*
X0026986Y0016482D01*
X0026851Y0016398D01*
X0026715Y0016319D01*
X0026576Y0016242D01*
X0026435Y0016170D01*
X0026293Y0016100D01*
X0026149Y0016035D01*
X0026003Y0015973D01*
X0025856Y0015915D01*
X0025707Y0015860D01*
X0025557Y0015809D01*
X0025406Y0015762D01*
X0025254Y0015719D01*
X0025101Y0015680D01*
X0024946Y0015644D01*
X0024791Y0015613D01*
X0024635Y0015585D01*
X0024479Y0015561D01*
X0024322Y0015541D01*
X0024164Y0015525D01*
X0024007Y0015513D01*
X0023848Y0015505D01*
X0023690Y0015501D01*
X0023532Y0015501D01*
X0023374Y0015505D01*
X0023215Y0015513D01*
X0023058Y0015525D01*
X0022900Y0015541D01*
X0022743Y0015561D01*
X0022587Y0015585D01*
X0022431Y0015613D01*
X0022276Y0015644D01*
X0022121Y0015680D01*
X0021968Y0015719D01*
X0021816Y0015762D01*
X0021665Y0015809D01*
X0021515Y0015860D01*
X0021366Y0015915D01*
X0021219Y0015973D01*
X0021073Y0016035D01*
X0020929Y0016100D01*
X0020787Y0016170D01*
X0020646Y0016242D01*
X0020507Y0016319D01*
X0020371Y0016398D01*
X0020236Y0016482D01*
X0020103Y0016568D01*
X0019973Y0016658D01*
X0019845Y0016751D01*
X0019719Y0016847D01*
X0019596Y0016947D01*
X0019475Y0017049D01*
X0019357Y0017154D01*
X0019242Y0017263D01*
X0019129Y0017374D01*
X0019019Y0017488D01*
X0018912Y0017605D01*
X0018808Y0017724D01*
X0018707Y0017846D01*
X0018610Y0017971D01*
X0018515Y0018098D01*
X0018424Y0018227D01*
X0018335Y0018358D01*
X0018251Y0018492D01*
X0018169Y0018628D01*
X0018091Y0018765D01*
X0018017Y0018905D01*
X0017946Y0019047D01*
X0017878Y0019190D01*
X0017814Y0019335D01*
X0017754Y0019481D01*
X0017698Y0019629D01*
X0017645Y0019778D01*
X0017596Y0019929D01*
X0017551Y0020081D01*
X0017510Y0020234D01*
X0017472Y0020387D01*
X0017439Y0020542D01*
X0017409Y0020698D01*
X0017383Y0020854D01*
X0017362Y0021011D01*
X0017344Y0021168D01*
X0017330Y0021326D01*
X0017320Y0021484D01*
X0017314Y0021642D01*
X0017312Y0021800D01*
X0017312Y0196839D02*
X0017314Y0196997D01*
X0017320Y0197155D01*
X0017330Y0197313D01*
X0017344Y0197471D01*
X0017362Y0197628D01*
X0017383Y0197785D01*
X0017409Y0197941D01*
X0017439Y0198097D01*
X0017472Y0198252D01*
X0017510Y0198405D01*
X0017551Y0198558D01*
X0017596Y0198710D01*
X0017645Y0198861D01*
X0017698Y0199010D01*
X0017754Y0199158D01*
X0017814Y0199304D01*
X0017878Y0199449D01*
X0017946Y0199592D01*
X0018017Y0199734D01*
X0018091Y0199874D01*
X0018169Y0200011D01*
X0018251Y0200147D01*
X0018335Y0200281D01*
X0018424Y0200412D01*
X0018515Y0200541D01*
X0018610Y0200668D01*
X0018707Y0200793D01*
X0018808Y0200915D01*
X0018912Y0201034D01*
X0019019Y0201151D01*
X0019129Y0201265D01*
X0019242Y0201376D01*
X0019357Y0201485D01*
X0019475Y0201590D01*
X0019596Y0201692D01*
X0019719Y0201792D01*
X0019845Y0201888D01*
X0019973Y0201981D01*
X0020103Y0202071D01*
X0020236Y0202157D01*
X0020371Y0202241D01*
X0020507Y0202320D01*
X0020646Y0202397D01*
X0020787Y0202469D01*
X0020929Y0202539D01*
X0021073Y0202604D01*
X0021219Y0202666D01*
X0021366Y0202724D01*
X0021515Y0202779D01*
X0021665Y0202830D01*
X0021816Y0202877D01*
X0021968Y0202920D01*
X0022121Y0202959D01*
X0022276Y0202995D01*
X0022431Y0203026D01*
X0022587Y0203054D01*
X0022743Y0203078D01*
X0022900Y0203098D01*
X0023058Y0203114D01*
X0023215Y0203126D01*
X0023374Y0203134D01*
X0023532Y0203138D01*
X0023690Y0203138D01*
X0023848Y0203134D01*
X0024007Y0203126D01*
X0024164Y0203114D01*
X0024322Y0203098D01*
X0024479Y0203078D01*
X0024635Y0203054D01*
X0024791Y0203026D01*
X0024946Y0202995D01*
X0025101Y0202959D01*
X0025254Y0202920D01*
X0025406Y0202877D01*
X0025557Y0202830D01*
X0025707Y0202779D01*
X0025856Y0202724D01*
X0026003Y0202666D01*
X0026149Y0202604D01*
X0026293Y0202539D01*
X0026435Y0202469D01*
X0026576Y0202397D01*
X0026715Y0202320D01*
X0026851Y0202241D01*
X0026986Y0202157D01*
X0027119Y0202071D01*
X0027249Y0201981D01*
X0027377Y0201888D01*
X0027503Y0201792D01*
X0027626Y0201692D01*
X0027747Y0201590D01*
X0027865Y0201485D01*
X0027980Y0201376D01*
X0028093Y0201265D01*
X0028203Y0201151D01*
X0028310Y0201034D01*
X0028414Y0200915D01*
X0028515Y0200793D01*
X0028612Y0200668D01*
X0028707Y0200541D01*
X0028798Y0200412D01*
X0028887Y0200281D01*
X0028971Y0200147D01*
X0029053Y0200011D01*
X0029131Y0199874D01*
X0029205Y0199734D01*
X0029276Y0199592D01*
X0029344Y0199449D01*
X0029408Y0199304D01*
X0029468Y0199158D01*
X0029524Y0199010D01*
X0029577Y0198861D01*
X0029626Y0198710D01*
X0029671Y0198558D01*
X0029712Y0198405D01*
X0029750Y0198252D01*
X0029783Y0198097D01*
X0029813Y0197941D01*
X0029839Y0197785D01*
X0029860Y0197628D01*
X0029878Y0197471D01*
X0029892Y0197313D01*
X0029902Y0197155D01*
X0029908Y0196997D01*
X0029910Y0196839D01*
X0029908Y0196681D01*
X0029902Y0196523D01*
X0029892Y0196365D01*
X0029878Y0196207D01*
X0029860Y0196050D01*
X0029839Y0195893D01*
X0029813Y0195737D01*
X0029783Y0195581D01*
X0029750Y0195426D01*
X0029712Y0195273D01*
X0029671Y0195120D01*
X0029626Y0194968D01*
X0029577Y0194817D01*
X0029524Y0194668D01*
X0029468Y0194520D01*
X0029408Y0194374D01*
X0029344Y0194229D01*
X0029276Y0194086D01*
X0029205Y0193944D01*
X0029131Y0193804D01*
X0029053Y0193667D01*
X0028971Y0193531D01*
X0028887Y0193397D01*
X0028798Y0193266D01*
X0028707Y0193137D01*
X0028612Y0193010D01*
X0028515Y0192885D01*
X0028414Y0192763D01*
X0028310Y0192644D01*
X0028203Y0192527D01*
X0028093Y0192413D01*
X0027980Y0192302D01*
X0027865Y0192193D01*
X0027747Y0192088D01*
X0027626Y0191986D01*
X0027503Y0191886D01*
X0027377Y0191790D01*
X0027249Y0191697D01*
X0027119Y0191607D01*
X0026986Y0191521D01*
X0026851Y0191437D01*
X0026715Y0191358D01*
X0026576Y0191281D01*
X0026435Y0191209D01*
X0026293Y0191139D01*
X0026149Y0191074D01*
X0026003Y0191012D01*
X0025856Y0190954D01*
X0025707Y0190899D01*
X0025557Y0190848D01*
X0025406Y0190801D01*
X0025254Y0190758D01*
X0025101Y0190719D01*
X0024946Y0190683D01*
X0024791Y0190652D01*
X0024635Y0190624D01*
X0024479Y0190600D01*
X0024322Y0190580D01*
X0024164Y0190564D01*
X0024007Y0190552D01*
X0023848Y0190544D01*
X0023690Y0190540D01*
X0023532Y0190540D01*
X0023374Y0190544D01*
X0023215Y0190552D01*
X0023058Y0190564D01*
X0022900Y0190580D01*
X0022743Y0190600D01*
X0022587Y0190624D01*
X0022431Y0190652D01*
X0022276Y0190683D01*
X0022121Y0190719D01*
X0021968Y0190758D01*
X0021816Y0190801D01*
X0021665Y0190848D01*
X0021515Y0190899D01*
X0021366Y0190954D01*
X0021219Y0191012D01*
X0021073Y0191074D01*
X0020929Y0191139D01*
X0020787Y0191209D01*
X0020646Y0191281D01*
X0020507Y0191358D01*
X0020371Y0191437D01*
X0020236Y0191521D01*
X0020103Y0191607D01*
X0019973Y0191697D01*
X0019845Y0191790D01*
X0019719Y0191886D01*
X0019596Y0191986D01*
X0019475Y0192088D01*
X0019357Y0192193D01*
X0019242Y0192302D01*
X0019129Y0192413D01*
X0019019Y0192527D01*
X0018912Y0192644D01*
X0018808Y0192763D01*
X0018707Y0192885D01*
X0018610Y0193010D01*
X0018515Y0193137D01*
X0018424Y0193266D01*
X0018335Y0193397D01*
X0018251Y0193531D01*
X0018169Y0193667D01*
X0018091Y0193804D01*
X0018017Y0193944D01*
X0017946Y0194086D01*
X0017878Y0194229D01*
X0017814Y0194374D01*
X0017754Y0194520D01*
X0017698Y0194668D01*
X0017645Y0194817D01*
X0017596Y0194968D01*
X0017551Y0195120D01*
X0017510Y0195273D01*
X0017472Y0195426D01*
X0017439Y0195581D01*
X0017409Y0195737D01*
X0017383Y0195893D01*
X0017362Y0196050D01*
X0017344Y0196207D01*
X0017330Y0196365D01*
X0017320Y0196523D01*
X0017314Y0196681D01*
X0017312Y0196839D01*
X0190540Y0196839D02*
X0190542Y0196997D01*
X0190548Y0197155D01*
X0190558Y0197313D01*
X0190572Y0197471D01*
X0190590Y0197628D01*
X0190611Y0197785D01*
X0190637Y0197941D01*
X0190667Y0198097D01*
X0190700Y0198252D01*
X0190738Y0198405D01*
X0190779Y0198558D01*
X0190824Y0198710D01*
X0190873Y0198861D01*
X0190926Y0199010D01*
X0190982Y0199158D01*
X0191042Y0199304D01*
X0191106Y0199449D01*
X0191174Y0199592D01*
X0191245Y0199734D01*
X0191319Y0199874D01*
X0191397Y0200011D01*
X0191479Y0200147D01*
X0191563Y0200281D01*
X0191652Y0200412D01*
X0191743Y0200541D01*
X0191838Y0200668D01*
X0191935Y0200793D01*
X0192036Y0200915D01*
X0192140Y0201034D01*
X0192247Y0201151D01*
X0192357Y0201265D01*
X0192470Y0201376D01*
X0192585Y0201485D01*
X0192703Y0201590D01*
X0192824Y0201692D01*
X0192947Y0201792D01*
X0193073Y0201888D01*
X0193201Y0201981D01*
X0193331Y0202071D01*
X0193464Y0202157D01*
X0193599Y0202241D01*
X0193735Y0202320D01*
X0193874Y0202397D01*
X0194015Y0202469D01*
X0194157Y0202539D01*
X0194301Y0202604D01*
X0194447Y0202666D01*
X0194594Y0202724D01*
X0194743Y0202779D01*
X0194893Y0202830D01*
X0195044Y0202877D01*
X0195196Y0202920D01*
X0195349Y0202959D01*
X0195504Y0202995D01*
X0195659Y0203026D01*
X0195815Y0203054D01*
X0195971Y0203078D01*
X0196128Y0203098D01*
X0196286Y0203114D01*
X0196443Y0203126D01*
X0196602Y0203134D01*
X0196760Y0203138D01*
X0196918Y0203138D01*
X0197076Y0203134D01*
X0197235Y0203126D01*
X0197392Y0203114D01*
X0197550Y0203098D01*
X0197707Y0203078D01*
X0197863Y0203054D01*
X0198019Y0203026D01*
X0198174Y0202995D01*
X0198329Y0202959D01*
X0198482Y0202920D01*
X0198634Y0202877D01*
X0198785Y0202830D01*
X0198935Y0202779D01*
X0199084Y0202724D01*
X0199231Y0202666D01*
X0199377Y0202604D01*
X0199521Y0202539D01*
X0199663Y0202469D01*
X0199804Y0202397D01*
X0199943Y0202320D01*
X0200079Y0202241D01*
X0200214Y0202157D01*
X0200347Y0202071D01*
X0200477Y0201981D01*
X0200605Y0201888D01*
X0200731Y0201792D01*
X0200854Y0201692D01*
X0200975Y0201590D01*
X0201093Y0201485D01*
X0201208Y0201376D01*
X0201321Y0201265D01*
X0201431Y0201151D01*
X0201538Y0201034D01*
X0201642Y0200915D01*
X0201743Y0200793D01*
X0201840Y0200668D01*
X0201935Y0200541D01*
X0202026Y0200412D01*
X0202115Y0200281D01*
X0202199Y0200147D01*
X0202281Y0200011D01*
X0202359Y0199874D01*
X0202433Y0199734D01*
X0202504Y0199592D01*
X0202572Y0199449D01*
X0202636Y0199304D01*
X0202696Y0199158D01*
X0202752Y0199010D01*
X0202805Y0198861D01*
X0202854Y0198710D01*
X0202899Y0198558D01*
X0202940Y0198405D01*
X0202978Y0198252D01*
X0203011Y0198097D01*
X0203041Y0197941D01*
X0203067Y0197785D01*
X0203088Y0197628D01*
X0203106Y0197471D01*
X0203120Y0197313D01*
X0203130Y0197155D01*
X0203136Y0196997D01*
X0203138Y0196839D01*
X0203136Y0196681D01*
X0203130Y0196523D01*
X0203120Y0196365D01*
X0203106Y0196207D01*
X0203088Y0196050D01*
X0203067Y0195893D01*
X0203041Y0195737D01*
X0203011Y0195581D01*
X0202978Y0195426D01*
X0202940Y0195273D01*
X0202899Y0195120D01*
X0202854Y0194968D01*
X0202805Y0194817D01*
X0202752Y0194668D01*
X0202696Y0194520D01*
X0202636Y0194374D01*
X0202572Y0194229D01*
X0202504Y0194086D01*
X0202433Y0193944D01*
X0202359Y0193804D01*
X0202281Y0193667D01*
X0202199Y0193531D01*
X0202115Y0193397D01*
X0202026Y0193266D01*
X0201935Y0193137D01*
X0201840Y0193010D01*
X0201743Y0192885D01*
X0201642Y0192763D01*
X0201538Y0192644D01*
X0201431Y0192527D01*
X0201321Y0192413D01*
X0201208Y0192302D01*
X0201093Y0192193D01*
X0200975Y0192088D01*
X0200854Y0191986D01*
X0200731Y0191886D01*
X0200605Y0191790D01*
X0200477Y0191697D01*
X0200347Y0191607D01*
X0200214Y0191521D01*
X0200079Y0191437D01*
X0199943Y0191358D01*
X0199804Y0191281D01*
X0199663Y0191209D01*
X0199521Y0191139D01*
X0199377Y0191074D01*
X0199231Y0191012D01*
X0199084Y0190954D01*
X0198935Y0190899D01*
X0198785Y0190848D01*
X0198634Y0190801D01*
X0198482Y0190758D01*
X0198329Y0190719D01*
X0198174Y0190683D01*
X0198019Y0190652D01*
X0197863Y0190624D01*
X0197707Y0190600D01*
X0197550Y0190580D01*
X0197392Y0190564D01*
X0197235Y0190552D01*
X0197076Y0190544D01*
X0196918Y0190540D01*
X0196760Y0190540D01*
X0196602Y0190544D01*
X0196443Y0190552D01*
X0196286Y0190564D01*
X0196128Y0190580D01*
X0195971Y0190600D01*
X0195815Y0190624D01*
X0195659Y0190652D01*
X0195504Y0190683D01*
X0195349Y0190719D01*
X0195196Y0190758D01*
X0195044Y0190801D01*
X0194893Y0190848D01*
X0194743Y0190899D01*
X0194594Y0190954D01*
X0194447Y0191012D01*
X0194301Y0191074D01*
X0194157Y0191139D01*
X0194015Y0191209D01*
X0193874Y0191281D01*
X0193735Y0191358D01*
X0193599Y0191437D01*
X0193464Y0191521D01*
X0193331Y0191607D01*
X0193201Y0191697D01*
X0193073Y0191790D01*
X0192947Y0191886D01*
X0192824Y0191986D01*
X0192703Y0192088D01*
X0192585Y0192193D01*
X0192470Y0192302D01*
X0192357Y0192413D01*
X0192247Y0192527D01*
X0192140Y0192644D01*
X0192036Y0192763D01*
X0191935Y0192885D01*
X0191838Y0193010D01*
X0191743Y0193137D01*
X0191652Y0193266D01*
X0191563Y0193397D01*
X0191479Y0193531D01*
X0191397Y0193667D01*
X0191319Y0193804D01*
X0191245Y0193944D01*
X0191174Y0194086D01*
X0191106Y0194229D01*
X0191042Y0194374D01*
X0190982Y0194520D01*
X0190926Y0194668D01*
X0190873Y0194817D01*
X0190824Y0194968D01*
X0190779Y0195120D01*
X0190738Y0195273D01*
X0190700Y0195426D01*
X0190667Y0195581D01*
X0190637Y0195737D01*
X0190611Y0195893D01*
X0190590Y0196050D01*
X0190572Y0196207D01*
X0190558Y0196365D01*
X0190548Y0196523D01*
X0190542Y0196681D01*
X0190540Y0196839D01*
X0190540Y0021800D02*
X0190542Y0021958D01*
X0190548Y0022116D01*
X0190558Y0022274D01*
X0190572Y0022432D01*
X0190590Y0022589D01*
X0190611Y0022746D01*
X0190637Y0022902D01*
X0190667Y0023058D01*
X0190700Y0023213D01*
X0190738Y0023366D01*
X0190779Y0023519D01*
X0190824Y0023671D01*
X0190873Y0023822D01*
X0190926Y0023971D01*
X0190982Y0024119D01*
X0191042Y0024265D01*
X0191106Y0024410D01*
X0191174Y0024553D01*
X0191245Y0024695D01*
X0191319Y0024835D01*
X0191397Y0024972D01*
X0191479Y0025108D01*
X0191563Y0025242D01*
X0191652Y0025373D01*
X0191743Y0025502D01*
X0191838Y0025629D01*
X0191935Y0025754D01*
X0192036Y0025876D01*
X0192140Y0025995D01*
X0192247Y0026112D01*
X0192357Y0026226D01*
X0192470Y0026337D01*
X0192585Y0026446D01*
X0192703Y0026551D01*
X0192824Y0026653D01*
X0192947Y0026753D01*
X0193073Y0026849D01*
X0193201Y0026942D01*
X0193331Y0027032D01*
X0193464Y0027118D01*
X0193599Y0027202D01*
X0193735Y0027281D01*
X0193874Y0027358D01*
X0194015Y0027430D01*
X0194157Y0027500D01*
X0194301Y0027565D01*
X0194447Y0027627D01*
X0194594Y0027685D01*
X0194743Y0027740D01*
X0194893Y0027791D01*
X0195044Y0027838D01*
X0195196Y0027881D01*
X0195349Y0027920D01*
X0195504Y0027956D01*
X0195659Y0027987D01*
X0195815Y0028015D01*
X0195971Y0028039D01*
X0196128Y0028059D01*
X0196286Y0028075D01*
X0196443Y0028087D01*
X0196602Y0028095D01*
X0196760Y0028099D01*
X0196918Y0028099D01*
X0197076Y0028095D01*
X0197235Y0028087D01*
X0197392Y0028075D01*
X0197550Y0028059D01*
X0197707Y0028039D01*
X0197863Y0028015D01*
X0198019Y0027987D01*
X0198174Y0027956D01*
X0198329Y0027920D01*
X0198482Y0027881D01*
X0198634Y0027838D01*
X0198785Y0027791D01*
X0198935Y0027740D01*
X0199084Y0027685D01*
X0199231Y0027627D01*
X0199377Y0027565D01*
X0199521Y0027500D01*
X0199663Y0027430D01*
X0199804Y0027358D01*
X0199943Y0027281D01*
X0200079Y0027202D01*
X0200214Y0027118D01*
X0200347Y0027032D01*
X0200477Y0026942D01*
X0200605Y0026849D01*
X0200731Y0026753D01*
X0200854Y0026653D01*
X0200975Y0026551D01*
X0201093Y0026446D01*
X0201208Y0026337D01*
X0201321Y0026226D01*
X0201431Y0026112D01*
X0201538Y0025995D01*
X0201642Y0025876D01*
X0201743Y0025754D01*
X0201840Y0025629D01*
X0201935Y0025502D01*
X0202026Y0025373D01*
X0202115Y0025242D01*
X0202199Y0025108D01*
X0202281Y0024972D01*
X0202359Y0024835D01*
X0202433Y0024695D01*
X0202504Y0024553D01*
X0202572Y0024410D01*
X0202636Y0024265D01*
X0202696Y0024119D01*
X0202752Y0023971D01*
X0202805Y0023822D01*
X0202854Y0023671D01*
X0202899Y0023519D01*
X0202940Y0023366D01*
X0202978Y0023213D01*
X0203011Y0023058D01*
X0203041Y0022902D01*
X0203067Y0022746D01*
X0203088Y0022589D01*
X0203106Y0022432D01*
X0203120Y0022274D01*
X0203130Y0022116D01*
X0203136Y0021958D01*
X0203138Y0021800D01*
X0203136Y0021642D01*
X0203130Y0021484D01*
X0203120Y0021326D01*
X0203106Y0021168D01*
X0203088Y0021011D01*
X0203067Y0020854D01*
X0203041Y0020698D01*
X0203011Y0020542D01*
X0202978Y0020387D01*
X0202940Y0020234D01*
X0202899Y0020081D01*
X0202854Y0019929D01*
X0202805Y0019778D01*
X0202752Y0019629D01*
X0202696Y0019481D01*
X0202636Y0019335D01*
X0202572Y0019190D01*
X0202504Y0019047D01*
X0202433Y0018905D01*
X0202359Y0018765D01*
X0202281Y0018628D01*
X0202199Y0018492D01*
X0202115Y0018358D01*
X0202026Y0018227D01*
X0201935Y0018098D01*
X0201840Y0017971D01*
X0201743Y0017846D01*
X0201642Y0017724D01*
X0201538Y0017605D01*
X0201431Y0017488D01*
X0201321Y0017374D01*
X0201208Y0017263D01*
X0201093Y0017154D01*
X0200975Y0017049D01*
X0200854Y0016947D01*
X0200731Y0016847D01*
X0200605Y0016751D01*
X0200477Y0016658D01*
X0200347Y0016568D01*
X0200214Y0016482D01*
X0200079Y0016398D01*
X0199943Y0016319D01*
X0199804Y0016242D01*
X0199663Y0016170D01*
X0199521Y0016100D01*
X0199377Y0016035D01*
X0199231Y0015973D01*
X0199084Y0015915D01*
X0198935Y0015860D01*
X0198785Y0015809D01*
X0198634Y0015762D01*
X0198482Y0015719D01*
X0198329Y0015680D01*
X0198174Y0015644D01*
X0198019Y0015613D01*
X0197863Y0015585D01*
X0197707Y0015561D01*
X0197550Y0015541D01*
X0197392Y0015525D01*
X0197235Y0015513D01*
X0197076Y0015505D01*
X0196918Y0015501D01*
X0196760Y0015501D01*
X0196602Y0015505D01*
X0196443Y0015513D01*
X0196286Y0015525D01*
X0196128Y0015541D01*
X0195971Y0015561D01*
X0195815Y0015585D01*
X0195659Y0015613D01*
X0195504Y0015644D01*
X0195349Y0015680D01*
X0195196Y0015719D01*
X0195044Y0015762D01*
X0194893Y0015809D01*
X0194743Y0015860D01*
X0194594Y0015915D01*
X0194447Y0015973D01*
X0194301Y0016035D01*
X0194157Y0016100D01*
X0194015Y0016170D01*
X0193874Y0016242D01*
X0193735Y0016319D01*
X0193599Y0016398D01*
X0193464Y0016482D01*
X0193331Y0016568D01*
X0193201Y0016658D01*
X0193073Y0016751D01*
X0192947Y0016847D01*
X0192824Y0016947D01*
X0192703Y0017049D01*
X0192585Y0017154D01*
X0192470Y0017263D01*
X0192357Y0017374D01*
X0192247Y0017488D01*
X0192140Y0017605D01*
X0192036Y0017724D01*
X0191935Y0017846D01*
X0191838Y0017971D01*
X0191743Y0018098D01*
X0191652Y0018227D01*
X0191563Y0018358D01*
X0191479Y0018492D01*
X0191397Y0018628D01*
X0191319Y0018765D01*
X0191245Y0018905D01*
X0191174Y0019047D01*
X0191106Y0019190D01*
X0191042Y0019335D01*
X0190982Y0019481D01*
X0190926Y0019629D01*
X0190873Y0019778D01*
X0190824Y0019929D01*
X0190779Y0020081D01*
X0190738Y0020234D01*
X0190700Y0020387D01*
X0190667Y0020542D01*
X0190637Y0020698D01*
X0190611Y0020854D01*
X0190590Y0021011D01*
X0190572Y0021168D01*
X0190558Y0021326D01*
X0190548Y0021484D01*
X0190542Y0021642D01*
X0190540Y0021800D01*
D11*
X0184800Y0045800D02*
X0184800Y0067800D01*
X0038800Y0067800D01*
X0038800Y0059300D01*
X0038898Y0059298D01*
X0038996Y0059292D01*
X0039094Y0059283D01*
X0039191Y0059269D01*
X0039288Y0059252D01*
X0039384Y0059231D01*
X0039479Y0059206D01*
X0039573Y0059178D01*
X0039665Y0059145D01*
X0039757Y0059110D01*
X0039847Y0059070D01*
X0039935Y0059028D01*
X0040022Y0058981D01*
X0040106Y0058932D01*
X0040189Y0058879D01*
X0040269Y0058823D01*
X0040348Y0058763D01*
X0040424Y0058701D01*
X0040497Y0058636D01*
X0040568Y0058568D01*
X0040636Y0058497D01*
X0040701Y0058424D01*
X0040763Y0058348D01*
X0040823Y0058269D01*
X0040879Y0058189D01*
X0040932Y0058106D01*
X0040981Y0058022D01*
X0041028Y0057935D01*
X0041070Y0057847D01*
X0041110Y0057757D01*
X0041145Y0057665D01*
X0041178Y0057573D01*
X0041206Y0057479D01*
X0041231Y0057384D01*
X0041252Y0057288D01*
X0041269Y0057191D01*
X0041283Y0057094D01*
X0041292Y0056996D01*
X0041298Y0056898D01*
X0041300Y0056800D01*
X0041298Y0056702D01*
X0041292Y0056604D01*
X0041283Y0056506D01*
X0041269Y0056409D01*
X0041252Y0056312D01*
X0041231Y0056216D01*
X0041206Y0056121D01*
X0041178Y0056027D01*
X0041145Y0055935D01*
X0041110Y0055843D01*
X0041070Y0055753D01*
X0041028Y0055665D01*
X0040981Y0055578D01*
X0040932Y0055494D01*
X0040879Y0055411D01*
X0040823Y0055331D01*
X0040763Y0055252D01*
X0040701Y0055176D01*
X0040636Y0055103D01*
X0040568Y0055032D01*
X0040497Y0054964D01*
X0040424Y0054899D01*
X0040348Y0054837D01*
X0040269Y0054777D01*
X0040189Y0054721D01*
X0040106Y0054668D01*
X0040022Y0054619D01*
X0039935Y0054572D01*
X0039847Y0054530D01*
X0039757Y0054490D01*
X0039665Y0054455D01*
X0039573Y0054422D01*
X0039479Y0054394D01*
X0039384Y0054369D01*
X0039288Y0054348D01*
X0039191Y0054331D01*
X0039094Y0054317D01*
X0038996Y0054308D01*
X0038898Y0054302D01*
X0038800Y0054300D01*
X0038800Y0045800D01*
X0184800Y0045800D01*
X0131300Y0085300D02*
X0131300Y0098300D01*
X0131298Y0098387D01*
X0131292Y0098474D01*
X0131283Y0098561D01*
X0131270Y0098647D01*
X0131253Y0098733D01*
X0131232Y0098818D01*
X0131207Y0098901D01*
X0131179Y0098984D01*
X0131148Y0099065D01*
X0131113Y0099145D01*
X0131074Y0099223D01*
X0131032Y0099300D01*
X0130987Y0099375D01*
X0130938Y0099447D01*
X0130887Y0099518D01*
X0130832Y0099586D01*
X0130775Y0099651D01*
X0130714Y0099714D01*
X0130651Y0099775D01*
X0130586Y0099832D01*
X0130518Y0099887D01*
X0130447Y0099938D01*
X0130375Y0099987D01*
X0130300Y0100032D01*
X0130223Y0100074D01*
X0130145Y0100113D01*
X0130065Y0100148D01*
X0129984Y0100179D01*
X0129901Y0100207D01*
X0129818Y0100232D01*
X0129733Y0100253D01*
X0129647Y0100270D01*
X0129561Y0100283D01*
X0129474Y0100292D01*
X0129387Y0100298D01*
X0129300Y0100300D01*
X0126800Y0096800D02*
X0126800Y0093100D01*
X0126800Y0090600D02*
X0126800Y0086800D01*
X0129300Y0083300D02*
X0129387Y0083302D01*
X0129474Y0083308D01*
X0129561Y0083317D01*
X0129647Y0083330D01*
X0129733Y0083347D01*
X0129818Y0083368D01*
X0129901Y0083393D01*
X0129984Y0083421D01*
X0130065Y0083452D01*
X0130145Y0083487D01*
X0130223Y0083526D01*
X0130300Y0083568D01*
X0130375Y0083613D01*
X0130447Y0083662D01*
X0130518Y0083713D01*
X0130586Y0083768D01*
X0130651Y0083825D01*
X0130714Y0083886D01*
X0130775Y0083949D01*
X0130832Y0084014D01*
X0130887Y0084082D01*
X0130938Y0084153D01*
X0130987Y0084225D01*
X0131032Y0084300D01*
X0131074Y0084377D01*
X0131113Y0084455D01*
X0131148Y0084535D01*
X0131179Y0084616D01*
X0131207Y0084699D01*
X0131232Y0084782D01*
X0131253Y0084867D01*
X0131270Y0084953D01*
X0131283Y0085039D01*
X0131292Y0085126D01*
X0131298Y0085213D01*
X0131300Y0085300D01*
X0124300Y0083300D02*
X0124213Y0083302D01*
X0124126Y0083308D01*
X0124039Y0083317D01*
X0123953Y0083330D01*
X0123867Y0083347D01*
X0123782Y0083368D01*
X0123699Y0083393D01*
X0123616Y0083421D01*
X0123535Y0083452D01*
X0123455Y0083487D01*
X0123377Y0083526D01*
X0123300Y0083568D01*
X0123225Y0083613D01*
X0123153Y0083662D01*
X0123082Y0083713D01*
X0123014Y0083768D01*
X0122949Y0083825D01*
X0122886Y0083886D01*
X0122825Y0083949D01*
X0122768Y0084014D01*
X0122713Y0084082D01*
X0122662Y0084153D01*
X0122613Y0084225D01*
X0122568Y0084300D01*
X0122526Y0084377D01*
X0122487Y0084455D01*
X0122452Y0084535D01*
X0122421Y0084616D01*
X0122393Y0084699D01*
X0122368Y0084782D01*
X0122347Y0084867D01*
X0122330Y0084953D01*
X0122317Y0085039D01*
X0122308Y0085126D01*
X0122302Y0085213D01*
X0122300Y0085300D01*
X0122300Y0098300D01*
X0121300Y0098300D02*
X0121300Y0085300D01*
X0121298Y0085213D01*
X0121292Y0085126D01*
X0121283Y0085039D01*
X0121270Y0084953D01*
X0121253Y0084867D01*
X0121232Y0084782D01*
X0121207Y0084699D01*
X0121179Y0084616D01*
X0121148Y0084535D01*
X0121113Y0084455D01*
X0121074Y0084377D01*
X0121032Y0084300D01*
X0120987Y0084225D01*
X0120938Y0084153D01*
X0120887Y0084082D01*
X0120832Y0084014D01*
X0120775Y0083949D01*
X0120714Y0083886D01*
X0120651Y0083825D01*
X0120586Y0083768D01*
X0120518Y0083713D01*
X0120447Y0083662D01*
X0120375Y0083613D01*
X0120300Y0083568D01*
X0120223Y0083526D01*
X0120145Y0083487D01*
X0120065Y0083452D01*
X0119984Y0083421D01*
X0119901Y0083393D01*
X0119818Y0083368D01*
X0119733Y0083347D01*
X0119647Y0083330D01*
X0119561Y0083317D01*
X0119474Y0083308D01*
X0119387Y0083302D01*
X0119300Y0083300D01*
X0116800Y0086800D02*
X0116800Y0090600D01*
X0116800Y0093100D02*
X0116800Y0096800D01*
X0114300Y0100300D02*
X0114213Y0100298D01*
X0114126Y0100292D01*
X0114039Y0100283D01*
X0113953Y0100270D01*
X0113867Y0100253D01*
X0113782Y0100232D01*
X0113699Y0100207D01*
X0113616Y0100179D01*
X0113535Y0100148D01*
X0113455Y0100113D01*
X0113377Y0100074D01*
X0113300Y0100032D01*
X0113225Y0099987D01*
X0113153Y0099938D01*
X0113082Y0099887D01*
X0113014Y0099832D01*
X0112949Y0099775D01*
X0112886Y0099714D01*
X0112825Y0099651D01*
X0112768Y0099586D01*
X0112713Y0099518D01*
X0112662Y0099447D01*
X0112613Y0099375D01*
X0112568Y0099300D01*
X0112526Y0099223D01*
X0112487Y0099145D01*
X0112452Y0099065D01*
X0112421Y0098984D01*
X0112393Y0098901D01*
X0112368Y0098818D01*
X0112347Y0098733D01*
X0112330Y0098647D01*
X0112317Y0098561D01*
X0112308Y0098474D01*
X0112302Y0098387D01*
X0112300Y0098300D01*
X0112300Y0085300D01*
X0112302Y0085213D01*
X0112308Y0085126D01*
X0112317Y0085039D01*
X0112330Y0084953D01*
X0112347Y0084867D01*
X0112368Y0084782D01*
X0112393Y0084699D01*
X0112421Y0084616D01*
X0112452Y0084535D01*
X0112487Y0084455D01*
X0112526Y0084377D01*
X0112568Y0084300D01*
X0112613Y0084225D01*
X0112662Y0084153D01*
X0112713Y0084082D01*
X0112768Y0084014D01*
X0112825Y0083949D01*
X0112886Y0083886D01*
X0112949Y0083825D01*
X0113014Y0083768D01*
X0113082Y0083713D01*
X0113153Y0083662D01*
X0113225Y0083613D01*
X0113300Y0083568D01*
X0113377Y0083526D01*
X0113455Y0083487D01*
X0113535Y0083452D01*
X0113616Y0083421D01*
X0113699Y0083393D01*
X0113782Y0083368D01*
X0113867Y0083347D01*
X0113953Y0083330D01*
X0114039Y0083317D01*
X0114126Y0083308D01*
X0114213Y0083302D01*
X0114300Y0083300D01*
X0121300Y0098300D02*
X0121298Y0098387D01*
X0121292Y0098474D01*
X0121283Y0098561D01*
X0121270Y0098647D01*
X0121253Y0098733D01*
X0121232Y0098818D01*
X0121207Y0098901D01*
X0121179Y0098984D01*
X0121148Y0099065D01*
X0121113Y0099145D01*
X0121074Y0099223D01*
X0121032Y0099300D01*
X0120987Y0099375D01*
X0120938Y0099447D01*
X0120887Y0099518D01*
X0120832Y0099586D01*
X0120775Y0099651D01*
X0120714Y0099714D01*
X0120651Y0099775D01*
X0120586Y0099832D01*
X0120518Y0099887D01*
X0120447Y0099938D01*
X0120375Y0099987D01*
X0120300Y0100032D01*
X0120223Y0100074D01*
X0120145Y0100113D01*
X0120065Y0100148D01*
X0119984Y0100179D01*
X0119901Y0100207D01*
X0119818Y0100232D01*
X0119733Y0100253D01*
X0119647Y0100270D01*
X0119561Y0100283D01*
X0119474Y0100292D01*
X0119387Y0100298D01*
X0119300Y0100300D01*
X0122300Y0098300D02*
X0122302Y0098387D01*
X0122308Y0098474D01*
X0122317Y0098561D01*
X0122330Y0098647D01*
X0122347Y0098733D01*
X0122368Y0098818D01*
X0122393Y0098901D01*
X0122421Y0098984D01*
X0122452Y0099065D01*
X0122487Y0099145D01*
X0122526Y0099223D01*
X0122568Y0099300D01*
X0122613Y0099375D01*
X0122662Y0099447D01*
X0122713Y0099518D01*
X0122768Y0099586D01*
X0122825Y0099651D01*
X0122886Y0099714D01*
X0122949Y0099775D01*
X0123014Y0099832D01*
X0123082Y0099887D01*
X0123153Y0099938D01*
X0123225Y0099987D01*
X0123300Y0100032D01*
X0123377Y0100074D01*
X0123455Y0100113D01*
X0123535Y0100148D01*
X0123616Y0100179D01*
X0123699Y0100207D01*
X0123782Y0100232D01*
X0123867Y0100253D01*
X0123953Y0100270D01*
X0124039Y0100283D01*
X0124126Y0100292D01*
X0124213Y0100298D01*
X0124300Y0100300D01*
X0121300Y0125300D02*
X0121300Y0126800D01*
X0120800Y0127300D01*
X0120800Y0146300D01*
X0121300Y0146800D01*
X0121300Y0148300D01*
X0121298Y0148360D01*
X0121293Y0148421D01*
X0121284Y0148480D01*
X0121271Y0148539D01*
X0121255Y0148598D01*
X0121235Y0148655D01*
X0121212Y0148710D01*
X0121185Y0148765D01*
X0121156Y0148817D01*
X0121123Y0148868D01*
X0121087Y0148917D01*
X0121049Y0148963D01*
X0121007Y0149007D01*
X0120963Y0149049D01*
X0120917Y0149087D01*
X0120868Y0149123D01*
X0120817Y0149156D01*
X0120765Y0149185D01*
X0120710Y0149212D01*
X0120655Y0149235D01*
X0120598Y0149255D01*
X0120539Y0149271D01*
X0120480Y0149284D01*
X0120421Y0149293D01*
X0120360Y0149298D01*
X0120300Y0149300D01*
X0113300Y0149300D02*
X0113240Y0149298D01*
X0113179Y0149293D01*
X0113120Y0149284D01*
X0113061Y0149271D01*
X0113002Y0149255D01*
X0112945Y0149235D01*
X0112890Y0149212D01*
X0112835Y0149185D01*
X0112783Y0149156D01*
X0112732Y0149123D01*
X0112683Y0149087D01*
X0112637Y0149049D01*
X0112593Y0149007D01*
X0112551Y0148963D01*
X0112513Y0148917D01*
X0112477Y0148868D01*
X0112444Y0148817D01*
X0112415Y0148765D01*
X0112388Y0148710D01*
X0112365Y0148655D01*
X0112345Y0148598D01*
X0112329Y0148539D01*
X0112316Y0148480D01*
X0112307Y0148421D01*
X0112302Y0148360D01*
X0112300Y0148300D01*
X0112300Y0146800D01*
X0112800Y0146300D01*
X0112800Y0127300D01*
X0112300Y0126800D01*
X0112300Y0125300D01*
X0112302Y0125240D01*
X0112307Y0125179D01*
X0112316Y0125120D01*
X0112329Y0125061D01*
X0112345Y0125002D01*
X0112365Y0124945D01*
X0112388Y0124890D01*
X0112415Y0124835D01*
X0112444Y0124783D01*
X0112477Y0124732D01*
X0112513Y0124683D01*
X0112551Y0124637D01*
X0112593Y0124593D01*
X0112637Y0124551D01*
X0112683Y0124513D01*
X0112732Y0124477D01*
X0112783Y0124444D01*
X0112835Y0124415D01*
X0112890Y0124388D01*
X0112945Y0124365D01*
X0113002Y0124345D01*
X0113061Y0124329D01*
X0113120Y0124316D01*
X0113179Y0124307D01*
X0113240Y0124302D01*
X0113300Y0124300D01*
X0120300Y0124300D02*
X0120360Y0124302D01*
X0120421Y0124307D01*
X0120480Y0124316D01*
X0120539Y0124329D01*
X0120598Y0124345D01*
X0120655Y0124365D01*
X0120710Y0124388D01*
X0120765Y0124415D01*
X0120817Y0124444D01*
X0120868Y0124477D01*
X0120917Y0124513D01*
X0120963Y0124551D01*
X0121007Y0124593D01*
X0121049Y0124637D01*
X0121087Y0124683D01*
X0121123Y0124732D01*
X0121156Y0124783D01*
X0121185Y0124835D01*
X0121212Y0124890D01*
X0121235Y0124945D01*
X0121255Y0125002D01*
X0121271Y0125061D01*
X0121284Y0125120D01*
X0121293Y0125179D01*
X0121298Y0125240D01*
X0121300Y0125300D01*
X0106300Y0135300D02*
X0106300Y0136800D01*
X0105800Y0137300D01*
X0105800Y0156300D01*
X0106300Y0156800D01*
X0106300Y0158300D01*
X0106298Y0158360D01*
X0106293Y0158421D01*
X0106284Y0158480D01*
X0106271Y0158539D01*
X0106255Y0158598D01*
X0106235Y0158655D01*
X0106212Y0158710D01*
X0106185Y0158765D01*
X0106156Y0158817D01*
X0106123Y0158868D01*
X0106087Y0158917D01*
X0106049Y0158963D01*
X0106007Y0159007D01*
X0105963Y0159049D01*
X0105917Y0159087D01*
X0105868Y0159123D01*
X0105817Y0159156D01*
X0105765Y0159185D01*
X0105710Y0159212D01*
X0105655Y0159235D01*
X0105598Y0159255D01*
X0105539Y0159271D01*
X0105480Y0159284D01*
X0105421Y0159293D01*
X0105360Y0159298D01*
X0105300Y0159300D01*
X0098300Y0159300D02*
X0098240Y0159298D01*
X0098179Y0159293D01*
X0098120Y0159284D01*
X0098061Y0159271D01*
X0098002Y0159255D01*
X0097945Y0159235D01*
X0097890Y0159212D01*
X0097835Y0159185D01*
X0097783Y0159156D01*
X0097732Y0159123D01*
X0097683Y0159087D01*
X0097637Y0159049D01*
X0097593Y0159007D01*
X0097551Y0158963D01*
X0097513Y0158917D01*
X0097477Y0158868D01*
X0097444Y0158817D01*
X0097415Y0158765D01*
X0097388Y0158710D01*
X0097365Y0158655D01*
X0097345Y0158598D01*
X0097329Y0158539D01*
X0097316Y0158480D01*
X0097307Y0158421D01*
X0097302Y0158360D01*
X0097300Y0158300D01*
X0097300Y0156800D01*
X0097800Y0156300D01*
X0097800Y0137300D01*
X0097300Y0136800D01*
X0097300Y0135300D01*
X0097302Y0135240D01*
X0097307Y0135179D01*
X0097316Y0135120D01*
X0097329Y0135061D01*
X0097345Y0135002D01*
X0097365Y0134945D01*
X0097388Y0134890D01*
X0097415Y0134835D01*
X0097444Y0134783D01*
X0097477Y0134732D01*
X0097513Y0134683D01*
X0097551Y0134637D01*
X0097593Y0134593D01*
X0097637Y0134551D01*
X0097683Y0134513D01*
X0097732Y0134477D01*
X0097783Y0134444D01*
X0097835Y0134415D01*
X0097890Y0134388D01*
X0097945Y0134365D01*
X0098002Y0134345D01*
X0098061Y0134329D01*
X0098120Y0134316D01*
X0098179Y0134307D01*
X0098240Y0134302D01*
X0098300Y0134300D01*
X0105300Y0134300D02*
X0105360Y0134302D01*
X0105421Y0134307D01*
X0105480Y0134316D01*
X0105539Y0134329D01*
X0105598Y0134345D01*
X0105655Y0134365D01*
X0105710Y0134388D01*
X0105765Y0134415D01*
X0105817Y0134444D01*
X0105868Y0134477D01*
X0105917Y0134513D01*
X0105963Y0134551D01*
X0106007Y0134593D01*
X0106049Y0134637D01*
X0106087Y0134683D01*
X0106123Y0134732D01*
X0106156Y0134783D01*
X0106185Y0134835D01*
X0106212Y0134890D01*
X0106235Y0134945D01*
X0106255Y0135002D01*
X0106271Y0135061D01*
X0106284Y0135120D01*
X0106293Y0135179D01*
X0106298Y0135240D01*
X0106300Y0135300D01*
X0142300Y0131800D02*
X0142300Y0130300D01*
X0142302Y0130240D01*
X0142307Y0130179D01*
X0142316Y0130120D01*
X0142329Y0130061D01*
X0142345Y0130002D01*
X0142365Y0129945D01*
X0142388Y0129890D01*
X0142415Y0129835D01*
X0142444Y0129783D01*
X0142477Y0129732D01*
X0142513Y0129683D01*
X0142551Y0129637D01*
X0142593Y0129593D01*
X0142637Y0129551D01*
X0142683Y0129513D01*
X0142732Y0129477D01*
X0142783Y0129444D01*
X0142835Y0129415D01*
X0142890Y0129388D01*
X0142945Y0129365D01*
X0143002Y0129345D01*
X0143061Y0129329D01*
X0143120Y0129316D01*
X0143179Y0129307D01*
X0143240Y0129302D01*
X0143300Y0129300D01*
X0142300Y0131800D02*
X0142800Y0132300D01*
X0142800Y0151300D01*
X0142300Y0151800D01*
X0142300Y0153300D01*
X0142302Y0153360D01*
X0142307Y0153421D01*
X0142316Y0153480D01*
X0142329Y0153539D01*
X0142345Y0153598D01*
X0142365Y0153655D01*
X0142388Y0153710D01*
X0142415Y0153765D01*
X0142444Y0153817D01*
X0142477Y0153868D01*
X0142513Y0153917D01*
X0142551Y0153963D01*
X0142593Y0154007D01*
X0142637Y0154049D01*
X0142683Y0154087D01*
X0142732Y0154123D01*
X0142783Y0154156D01*
X0142835Y0154185D01*
X0142890Y0154212D01*
X0142945Y0154235D01*
X0143002Y0154255D01*
X0143061Y0154271D01*
X0143120Y0154284D01*
X0143179Y0154293D01*
X0143240Y0154298D01*
X0143300Y0154300D01*
X0150300Y0154300D02*
X0150360Y0154298D01*
X0150421Y0154293D01*
X0150480Y0154284D01*
X0150539Y0154271D01*
X0150598Y0154255D01*
X0150655Y0154235D01*
X0150710Y0154212D01*
X0150765Y0154185D01*
X0150817Y0154156D01*
X0150868Y0154123D01*
X0150917Y0154087D01*
X0150963Y0154049D01*
X0151007Y0154007D01*
X0151049Y0153963D01*
X0151087Y0153917D01*
X0151123Y0153868D01*
X0151156Y0153817D01*
X0151185Y0153765D01*
X0151212Y0153710D01*
X0151235Y0153655D01*
X0151255Y0153598D01*
X0151271Y0153539D01*
X0151284Y0153480D01*
X0151293Y0153421D01*
X0151298Y0153360D01*
X0151300Y0153300D01*
X0151300Y0151800D01*
X0150800Y0151300D01*
X0150800Y0132300D01*
X0151300Y0131800D01*
X0151300Y0130300D01*
X0151298Y0130240D01*
X0151293Y0130179D01*
X0151284Y0130120D01*
X0151271Y0130061D01*
X0151255Y0130002D01*
X0151235Y0129945D01*
X0151212Y0129890D01*
X0151185Y0129835D01*
X0151156Y0129783D01*
X0151123Y0129732D01*
X0151087Y0129683D01*
X0151049Y0129637D01*
X0151007Y0129593D01*
X0150963Y0129551D01*
X0150917Y0129513D01*
X0150868Y0129477D01*
X0150817Y0129444D01*
X0150765Y0129415D01*
X0150710Y0129388D01*
X0150655Y0129365D01*
X0150598Y0129345D01*
X0150539Y0129329D01*
X0150480Y0129316D01*
X0150421Y0129307D01*
X0150360Y0129302D01*
X0150300Y0129300D01*
X0166800Y0129300D02*
X0166800Y0134300D01*
X0169300Y0136800D01*
X0166800Y0139300D01*
X0166800Y0144300D01*
X0169300Y0146800D01*
X0166800Y0149300D01*
X0166800Y0154300D01*
X0169300Y0156800D01*
X0184300Y0156800D01*
X0186800Y0154300D01*
X0186800Y0149300D01*
X0184300Y0146800D01*
X0186800Y0144300D01*
X0186800Y0139300D01*
X0184300Y0136800D01*
X0186800Y0134300D01*
X0186800Y0129300D01*
X0184300Y0126800D01*
X0169300Y0126800D01*
X0166800Y0129300D01*
X0123300Y0036300D02*
X0110300Y0036300D01*
X0110213Y0036298D01*
X0110126Y0036292D01*
X0110039Y0036283D01*
X0109953Y0036270D01*
X0109867Y0036253D01*
X0109782Y0036232D01*
X0109699Y0036207D01*
X0109616Y0036179D01*
X0109535Y0036148D01*
X0109455Y0036113D01*
X0109377Y0036074D01*
X0109300Y0036032D01*
X0109225Y0035987D01*
X0109153Y0035938D01*
X0109082Y0035887D01*
X0109014Y0035832D01*
X0108949Y0035775D01*
X0108886Y0035714D01*
X0108825Y0035651D01*
X0108768Y0035586D01*
X0108713Y0035518D01*
X0108662Y0035447D01*
X0108613Y0035375D01*
X0108568Y0035300D01*
X0108526Y0035223D01*
X0108487Y0035145D01*
X0108452Y0035065D01*
X0108421Y0034984D01*
X0108393Y0034901D01*
X0108368Y0034818D01*
X0108347Y0034733D01*
X0108330Y0034647D01*
X0108317Y0034561D01*
X0108308Y0034474D01*
X0108302Y0034387D01*
X0108300Y0034300D01*
X0111800Y0031800D02*
X0115600Y0031800D01*
X0118100Y0031800D02*
X0121800Y0031800D01*
X0125300Y0029300D02*
X0125298Y0029213D01*
X0125292Y0029126D01*
X0125283Y0029039D01*
X0125270Y0028953D01*
X0125253Y0028867D01*
X0125232Y0028782D01*
X0125207Y0028699D01*
X0125179Y0028616D01*
X0125148Y0028535D01*
X0125113Y0028455D01*
X0125074Y0028377D01*
X0125032Y0028300D01*
X0124987Y0028225D01*
X0124938Y0028153D01*
X0124887Y0028082D01*
X0124832Y0028014D01*
X0124775Y0027949D01*
X0124714Y0027886D01*
X0124651Y0027825D01*
X0124586Y0027768D01*
X0124518Y0027713D01*
X0124447Y0027662D01*
X0124375Y0027613D01*
X0124300Y0027568D01*
X0124223Y0027526D01*
X0124145Y0027487D01*
X0124065Y0027452D01*
X0123984Y0027421D01*
X0123901Y0027393D01*
X0123818Y0027368D01*
X0123733Y0027347D01*
X0123647Y0027330D01*
X0123561Y0027317D01*
X0123474Y0027308D01*
X0123387Y0027302D01*
X0123300Y0027300D01*
X0110300Y0027300D01*
X0110213Y0027302D01*
X0110126Y0027308D01*
X0110039Y0027317D01*
X0109953Y0027330D01*
X0109867Y0027347D01*
X0109782Y0027368D01*
X0109699Y0027393D01*
X0109616Y0027421D01*
X0109535Y0027452D01*
X0109455Y0027487D01*
X0109377Y0027526D01*
X0109300Y0027568D01*
X0109225Y0027613D01*
X0109153Y0027662D01*
X0109082Y0027713D01*
X0109014Y0027768D01*
X0108949Y0027825D01*
X0108886Y0027886D01*
X0108825Y0027949D01*
X0108768Y0028014D01*
X0108713Y0028082D01*
X0108662Y0028153D01*
X0108613Y0028225D01*
X0108568Y0028300D01*
X0108526Y0028377D01*
X0108487Y0028455D01*
X0108452Y0028535D01*
X0108421Y0028616D01*
X0108393Y0028699D01*
X0108368Y0028782D01*
X0108347Y0028867D01*
X0108330Y0028953D01*
X0108317Y0029039D01*
X0108308Y0029126D01*
X0108302Y0029213D01*
X0108300Y0029300D01*
X0094300Y0030300D02*
X0094298Y0030360D01*
X0094293Y0030421D01*
X0094284Y0030480D01*
X0094271Y0030539D01*
X0094255Y0030598D01*
X0094235Y0030655D01*
X0094212Y0030710D01*
X0094185Y0030765D01*
X0094156Y0030817D01*
X0094123Y0030868D01*
X0094087Y0030917D01*
X0094049Y0030963D01*
X0094007Y0031007D01*
X0093963Y0031049D01*
X0093917Y0031087D01*
X0093868Y0031123D01*
X0093817Y0031156D01*
X0093765Y0031185D01*
X0093710Y0031212D01*
X0093655Y0031235D01*
X0093598Y0031255D01*
X0093539Y0031271D01*
X0093480Y0031284D01*
X0093421Y0031293D01*
X0093360Y0031298D01*
X0093300Y0031300D01*
X0091800Y0031300D01*
X0091300Y0030800D01*
X0072300Y0030800D01*
X0071800Y0031300D01*
X0070300Y0031300D01*
X0070240Y0031298D01*
X0070179Y0031293D01*
X0070120Y0031284D01*
X0070061Y0031271D01*
X0070002Y0031255D01*
X0069945Y0031235D01*
X0069890Y0031212D01*
X0069835Y0031185D01*
X0069783Y0031156D01*
X0069732Y0031123D01*
X0069683Y0031087D01*
X0069637Y0031049D01*
X0069593Y0031007D01*
X0069551Y0030963D01*
X0069513Y0030917D01*
X0069477Y0030868D01*
X0069444Y0030817D01*
X0069415Y0030765D01*
X0069388Y0030710D01*
X0069365Y0030655D01*
X0069345Y0030598D01*
X0069329Y0030539D01*
X0069316Y0030480D01*
X0069307Y0030421D01*
X0069302Y0030360D01*
X0069300Y0030300D01*
X0069300Y0023300D02*
X0069302Y0023240D01*
X0069307Y0023179D01*
X0069316Y0023120D01*
X0069329Y0023061D01*
X0069345Y0023002D01*
X0069365Y0022945D01*
X0069388Y0022890D01*
X0069415Y0022835D01*
X0069444Y0022783D01*
X0069477Y0022732D01*
X0069513Y0022683D01*
X0069551Y0022637D01*
X0069593Y0022593D01*
X0069637Y0022551D01*
X0069683Y0022513D01*
X0069732Y0022477D01*
X0069783Y0022444D01*
X0069835Y0022415D01*
X0069890Y0022388D01*
X0069945Y0022365D01*
X0070002Y0022345D01*
X0070061Y0022329D01*
X0070120Y0022316D01*
X0070179Y0022307D01*
X0070240Y0022302D01*
X0070300Y0022300D01*
X0071800Y0022300D01*
X0072300Y0022800D01*
X0091300Y0022800D01*
X0091800Y0022300D01*
X0093300Y0022300D01*
X0093360Y0022302D01*
X0093421Y0022307D01*
X0093480Y0022316D01*
X0093539Y0022329D01*
X0093598Y0022345D01*
X0093655Y0022365D01*
X0093710Y0022388D01*
X0093765Y0022415D01*
X0093817Y0022444D01*
X0093868Y0022477D01*
X0093917Y0022513D01*
X0093963Y0022551D01*
X0094007Y0022593D01*
X0094049Y0022637D01*
X0094087Y0022683D01*
X0094123Y0022732D01*
X0094156Y0022783D01*
X0094185Y0022835D01*
X0094212Y0022890D01*
X0094235Y0022945D01*
X0094255Y0023002D01*
X0094271Y0023061D01*
X0094284Y0023120D01*
X0094293Y0023179D01*
X0094298Y0023240D01*
X0094300Y0023300D01*
X0123300Y0036300D02*
X0123387Y0036298D01*
X0123474Y0036292D01*
X0123561Y0036283D01*
X0123647Y0036270D01*
X0123733Y0036253D01*
X0123818Y0036232D01*
X0123901Y0036207D01*
X0123984Y0036179D01*
X0124065Y0036148D01*
X0124145Y0036113D01*
X0124223Y0036074D01*
X0124300Y0036032D01*
X0124375Y0035987D01*
X0124447Y0035938D01*
X0124518Y0035887D01*
X0124586Y0035832D01*
X0124651Y0035775D01*
X0124714Y0035714D01*
X0124775Y0035651D01*
X0124832Y0035586D01*
X0124887Y0035518D01*
X0124938Y0035447D01*
X0124987Y0035375D01*
X0125032Y0035300D01*
X0125074Y0035223D01*
X0125113Y0035145D01*
X0125148Y0035065D01*
X0125179Y0034984D01*
X0125207Y0034901D01*
X0125232Y0034818D01*
X0125253Y0034733D01*
X0125270Y0034647D01*
X0125283Y0034561D01*
X0125292Y0034474D01*
X0125298Y0034387D01*
X0125300Y0034300D01*
X0051800Y0020800D02*
X0051646Y0020802D01*
X0051492Y0020808D01*
X0051338Y0020818D01*
X0051184Y0020832D01*
X0051031Y0020849D01*
X0050879Y0020871D01*
X0050727Y0020897D01*
X0050575Y0020926D01*
X0050425Y0020960D01*
X0050275Y0020997D01*
X0050127Y0021038D01*
X0049979Y0021083D01*
X0049833Y0021132D01*
X0049688Y0021184D01*
X0049545Y0021240D01*
X0049402Y0021300D01*
X0049262Y0021363D01*
X0049123Y0021430D01*
X0048986Y0021501D01*
X0048851Y0021575D01*
X0048718Y0021652D01*
X0048586Y0021733D01*
X0048457Y0021817D01*
X0048330Y0021905D01*
X0048206Y0021996D01*
X0048084Y0022089D01*
X0047964Y0022187D01*
X0047847Y0022287D01*
X0047732Y0022390D01*
X0047620Y0022496D01*
X0047511Y0022604D01*
X0047405Y0022716D01*
X0047301Y0022830D01*
X0047201Y0022947D01*
X0047103Y0023066D01*
X0047009Y0023188D01*
X0046918Y0023313D01*
X0051800Y0032800D02*
X0051952Y0032798D01*
X0052103Y0032792D01*
X0052254Y0032783D01*
X0052406Y0032769D01*
X0052556Y0032752D01*
X0052706Y0032731D01*
X0052856Y0032706D01*
X0053005Y0032678D01*
X0053153Y0032645D01*
X0053300Y0032609D01*
X0053447Y0032570D01*
X0053592Y0032526D01*
X0053736Y0032479D01*
X0053879Y0032428D01*
X0054020Y0032374D01*
X0054161Y0032316D01*
X0054299Y0032255D01*
X0054436Y0032190D01*
X0054572Y0032121D01*
X0054705Y0032050D01*
X0054837Y0031975D01*
X0054967Y0031896D01*
X0055094Y0031815D01*
X0055220Y0031730D01*
X0055344Y0031642D01*
X0055465Y0031551D01*
X0055584Y0031457D01*
X0055700Y0031359D01*
X0055814Y0031259D01*
X0055926Y0031157D01*
X0056034Y0031051D01*
X0056140Y0030943D01*
X0056244Y0030832D01*
X0056344Y0030718D01*
X0056442Y0030602D01*
X0056536Y0030483D01*
X0051800Y0032800D02*
X0051648Y0032798D01*
X0051497Y0032792D01*
X0051346Y0032783D01*
X0051194Y0032769D01*
X0051044Y0032752D01*
X0050894Y0032731D01*
X0050744Y0032706D01*
X0050595Y0032678D01*
X0050447Y0032645D01*
X0050300Y0032609D01*
X0050153Y0032570D01*
X0050008Y0032526D01*
X0049864Y0032479D01*
X0049721Y0032428D01*
X0049580Y0032374D01*
X0049439Y0032316D01*
X0049301Y0032255D01*
X0049164Y0032190D01*
X0049028Y0032121D01*
X0048895Y0032050D01*
X0048763Y0031975D01*
X0048633Y0031896D01*
X0048506Y0031815D01*
X0048380Y0031730D01*
X0048256Y0031642D01*
X0048135Y0031551D01*
X0048016Y0031457D01*
X0047900Y0031359D01*
X0047786Y0031259D01*
X0047674Y0031157D01*
X0047566Y0031051D01*
X0047460Y0030943D01*
X0047356Y0030832D01*
X0047256Y0030718D01*
X0047158Y0030602D01*
X0047064Y0030483D01*
X0051800Y0020800D02*
X0051950Y0020802D01*
X0052101Y0020808D01*
X0052251Y0020817D01*
X0052400Y0020830D01*
X0052550Y0020847D01*
X0052699Y0020868D01*
X0052847Y0020892D01*
X0052995Y0020920D01*
X0053142Y0020952D01*
X0053288Y0020987D01*
X0053433Y0021027D01*
X0053577Y0021069D01*
X0053720Y0021116D01*
X0053862Y0021166D01*
X0054003Y0021219D01*
X0054142Y0021276D01*
X0054280Y0021336D01*
X0054416Y0021400D01*
X0054550Y0021467D01*
X0054683Y0021538D01*
X0054814Y0021612D01*
X0054943Y0021689D01*
X0055070Y0021770D01*
X0055195Y0021853D01*
X0055318Y0021940D01*
X0055439Y0022029D01*
X0055557Y0022122D01*
X0055673Y0022218D01*
X0055787Y0022316D01*
X0055898Y0022417D01*
X0056007Y0022522D01*
X0056112Y0022628D01*
X0056216Y0022738D01*
X0056316Y0022850D01*
X0056414Y0022964D01*
X0056508Y0023081D01*
X0056600Y0023200D01*
X0031300Y0045300D02*
X0031300Y0046800D01*
X0030800Y0047300D01*
X0030800Y0066300D01*
X0031300Y0066800D01*
X0031300Y0068300D01*
X0031298Y0068360D01*
X0031293Y0068421D01*
X0031284Y0068480D01*
X0031271Y0068539D01*
X0031255Y0068598D01*
X0031235Y0068655D01*
X0031212Y0068710D01*
X0031185Y0068765D01*
X0031156Y0068817D01*
X0031123Y0068868D01*
X0031087Y0068917D01*
X0031049Y0068963D01*
X0031007Y0069007D01*
X0030963Y0069049D01*
X0030917Y0069087D01*
X0030868Y0069123D01*
X0030817Y0069156D01*
X0030765Y0069185D01*
X0030710Y0069212D01*
X0030655Y0069235D01*
X0030598Y0069255D01*
X0030539Y0069271D01*
X0030480Y0069284D01*
X0030421Y0069293D01*
X0030360Y0069298D01*
X0030300Y0069300D01*
X0023300Y0069300D02*
X0023240Y0069298D01*
X0023179Y0069293D01*
X0023120Y0069284D01*
X0023061Y0069271D01*
X0023002Y0069255D01*
X0022945Y0069235D01*
X0022890Y0069212D01*
X0022835Y0069185D01*
X0022783Y0069156D01*
X0022732Y0069123D01*
X0022683Y0069087D01*
X0022637Y0069049D01*
X0022593Y0069007D01*
X0022551Y0068963D01*
X0022513Y0068917D01*
X0022477Y0068868D01*
X0022444Y0068817D01*
X0022415Y0068765D01*
X0022388Y0068710D01*
X0022365Y0068655D01*
X0022345Y0068598D01*
X0022329Y0068539D01*
X0022316Y0068480D01*
X0022307Y0068421D01*
X0022302Y0068360D01*
X0022300Y0068300D01*
X0022300Y0066800D01*
X0022800Y0066300D01*
X0022800Y0047300D01*
X0022300Y0046800D01*
X0022300Y0045300D01*
X0022302Y0045240D01*
X0022307Y0045179D01*
X0022316Y0045120D01*
X0022329Y0045061D01*
X0022345Y0045002D01*
X0022365Y0044945D01*
X0022388Y0044890D01*
X0022415Y0044835D01*
X0022444Y0044783D01*
X0022477Y0044732D01*
X0022513Y0044683D01*
X0022551Y0044637D01*
X0022593Y0044593D01*
X0022637Y0044551D01*
X0022683Y0044513D01*
X0022732Y0044477D01*
X0022783Y0044444D01*
X0022835Y0044415D01*
X0022890Y0044388D01*
X0022945Y0044365D01*
X0023002Y0044345D01*
X0023061Y0044329D01*
X0023120Y0044316D01*
X0023179Y0044307D01*
X0023240Y0044302D01*
X0023300Y0044300D01*
X0030300Y0044300D02*
X0030360Y0044302D01*
X0030421Y0044307D01*
X0030480Y0044316D01*
X0030539Y0044329D01*
X0030598Y0044345D01*
X0030655Y0044365D01*
X0030710Y0044388D01*
X0030765Y0044415D01*
X0030817Y0044444D01*
X0030868Y0044477D01*
X0030917Y0044513D01*
X0030963Y0044551D01*
X0031007Y0044593D01*
X0031049Y0044637D01*
X0031087Y0044683D01*
X0031123Y0044732D01*
X0031156Y0044783D01*
X0031185Y0044835D01*
X0031212Y0044890D01*
X0031235Y0044945D01*
X0031255Y0045002D01*
X0031271Y0045061D01*
X0031284Y0045120D01*
X0031293Y0045179D01*
X0031298Y0045240D01*
X0031300Y0045300D01*
X0028800Y0079800D02*
X0024300Y0079800D01*
X0024800Y0081800D01*
X0028300Y0081800D01*
X0045300Y0081800D01*
X0045300Y0121800D01*
X0050800Y0121800D01*
X0050800Y0081800D01*
X0045300Y0081800D01*
X0028800Y0079800D02*
X0028300Y0081800D01*
X0028300Y0121800D01*
X0045300Y0121800D01*
X0036500Y0127100D02*
X0030095Y0127100D01*
X0030095Y0131370D01*
X0032230Y0133545D02*
X0030095Y0135681D01*
X0032230Y0137816D01*
X0036500Y0137816D01*
X0036500Y0139991D02*
X0030095Y0139991D01*
X0030095Y0143194D01*
X0031162Y0144261D01*
X0033297Y0144261D01*
X0034365Y0143194D01*
X0034365Y0139991D01*
X0034365Y0142126D02*
X0036500Y0144261D01*
X0035432Y0146436D02*
X0036500Y0147504D01*
X0036500Y0149639D01*
X0035432Y0150707D01*
X0031162Y0150707D01*
X0030095Y0149639D01*
X0030095Y0147504D01*
X0031162Y0146436D01*
X0035432Y0146436D01*
X0035432Y0152882D02*
X0036500Y0153950D01*
X0036500Y0156085D01*
X0035432Y0157152D01*
X0034365Y0157152D01*
X0033297Y0156085D01*
X0033297Y0153950D01*
X0032230Y0152882D01*
X0031162Y0152882D01*
X0030095Y0153950D01*
X0030095Y0156085D01*
X0031162Y0157152D01*
X0032230Y0165773D02*
X0036500Y0167908D01*
X0032230Y0170043D01*
X0032230Y0172218D02*
X0030095Y0174354D01*
X0036500Y0174354D01*
X0036500Y0176489D02*
X0036500Y0172218D01*
X0036500Y0178664D02*
X0036500Y0179732D01*
X0035432Y0179732D01*
X0035432Y0178664D01*
X0036500Y0178664D01*
X0035432Y0181887D02*
X0031162Y0186157D01*
X0035432Y0186157D01*
X0036500Y0185089D01*
X0036500Y0182954D01*
X0035432Y0181887D01*
X0031162Y0181887D01*
X0030095Y0182954D01*
X0030095Y0185089D01*
X0031162Y0186157D01*
X0033297Y0137816D02*
X0033297Y0133545D01*
X0032230Y0133545D02*
X0036500Y0133545D01*
X0033297Y0129235D02*
X0033297Y0127100D01*
X0028300Y0121800D02*
X0021300Y0121800D01*
X0021300Y0081800D01*
X0024800Y0081800D01*
X0022800Y0091900D02*
X0022802Y0091989D01*
X0022808Y0092078D01*
X0022818Y0092167D01*
X0022832Y0092255D01*
X0022849Y0092342D01*
X0022871Y0092428D01*
X0022897Y0092514D01*
X0022926Y0092598D01*
X0022959Y0092681D01*
X0022995Y0092762D01*
X0023036Y0092842D01*
X0023079Y0092919D01*
X0023126Y0092995D01*
X0023177Y0093068D01*
X0023230Y0093139D01*
X0023287Y0093208D01*
X0023347Y0093274D01*
X0023410Y0093338D01*
X0023475Y0093398D01*
X0023543Y0093456D01*
X0023614Y0093510D01*
X0023687Y0093561D01*
X0023762Y0093609D01*
X0023839Y0093654D01*
X0023918Y0093695D01*
X0023999Y0093732D01*
X0024081Y0093766D01*
X0024165Y0093797D01*
X0024250Y0093823D01*
X0024336Y0093846D01*
X0024423Y0093864D01*
X0024511Y0093879D01*
X0024600Y0093890D01*
X0024689Y0093897D01*
X0024778Y0093900D01*
X0024867Y0093899D01*
X0024956Y0093894D01*
X0025044Y0093885D01*
X0025133Y0093872D01*
X0025220Y0093855D01*
X0025307Y0093835D01*
X0025393Y0093810D01*
X0025477Y0093782D01*
X0025560Y0093750D01*
X0025642Y0093714D01*
X0025722Y0093675D01*
X0025800Y0093632D01*
X0025876Y0093586D01*
X0025950Y0093536D01*
X0026022Y0093483D01*
X0026091Y0093427D01*
X0026158Y0093368D01*
X0026222Y0093306D01*
X0026283Y0093242D01*
X0026342Y0093174D01*
X0026397Y0093104D01*
X0026449Y0093032D01*
X0026498Y0092957D01*
X0026543Y0092881D01*
X0026585Y0092802D01*
X0026623Y0092722D01*
X0026658Y0092640D01*
X0026689Y0092556D01*
X0026717Y0092471D01*
X0026740Y0092385D01*
X0026760Y0092298D01*
X0026776Y0092211D01*
X0026788Y0092122D01*
X0026796Y0092034D01*
X0026800Y0091945D01*
X0026800Y0091855D01*
X0026796Y0091766D01*
X0026788Y0091678D01*
X0026776Y0091589D01*
X0026760Y0091502D01*
X0026740Y0091415D01*
X0026717Y0091329D01*
X0026689Y0091244D01*
X0026658Y0091160D01*
X0026623Y0091078D01*
X0026585Y0090998D01*
X0026543Y0090919D01*
X0026498Y0090843D01*
X0026449Y0090768D01*
X0026397Y0090696D01*
X0026342Y0090626D01*
X0026283Y0090558D01*
X0026222Y0090494D01*
X0026158Y0090432D01*
X0026091Y0090373D01*
X0026022Y0090317D01*
X0025950Y0090264D01*
X0025876Y0090214D01*
X0025800Y0090168D01*
X0025722Y0090125D01*
X0025642Y0090086D01*
X0025560Y0090050D01*
X0025477Y0090018D01*
X0025393Y0089990D01*
X0025307Y0089965D01*
X0025220Y0089945D01*
X0025133Y0089928D01*
X0025044Y0089915D01*
X0024956Y0089906D01*
X0024867Y0089901D01*
X0024778Y0089900D01*
X0024689Y0089903D01*
X0024600Y0089910D01*
X0024511Y0089921D01*
X0024423Y0089936D01*
X0024336Y0089954D01*
X0024250Y0089977D01*
X0024165Y0090003D01*
X0024081Y0090034D01*
X0023999Y0090068D01*
X0023918Y0090105D01*
X0023839Y0090146D01*
X0023762Y0090191D01*
X0023687Y0090239D01*
X0023614Y0090290D01*
X0023543Y0090344D01*
X0023475Y0090402D01*
X0023410Y0090462D01*
X0023347Y0090526D01*
X0023287Y0090592D01*
X0023230Y0090661D01*
X0023177Y0090732D01*
X0023126Y0090805D01*
X0023079Y0090881D01*
X0023036Y0090958D01*
X0022995Y0091038D01*
X0022959Y0091119D01*
X0022926Y0091202D01*
X0022897Y0091286D01*
X0022871Y0091372D01*
X0022849Y0091458D01*
X0022832Y0091545D01*
X0022818Y0091633D01*
X0022808Y0091722D01*
X0022802Y0091811D01*
X0022800Y0091900D01*
X0022800Y0111700D02*
X0022802Y0111789D01*
X0022808Y0111878D01*
X0022818Y0111967D01*
X0022832Y0112055D01*
X0022849Y0112142D01*
X0022871Y0112228D01*
X0022897Y0112314D01*
X0022926Y0112398D01*
X0022959Y0112481D01*
X0022995Y0112562D01*
X0023036Y0112642D01*
X0023079Y0112719D01*
X0023126Y0112795D01*
X0023177Y0112868D01*
X0023230Y0112939D01*
X0023287Y0113008D01*
X0023347Y0113074D01*
X0023410Y0113138D01*
X0023475Y0113198D01*
X0023543Y0113256D01*
X0023614Y0113310D01*
X0023687Y0113361D01*
X0023762Y0113409D01*
X0023839Y0113454D01*
X0023918Y0113495D01*
X0023999Y0113532D01*
X0024081Y0113566D01*
X0024165Y0113597D01*
X0024250Y0113623D01*
X0024336Y0113646D01*
X0024423Y0113664D01*
X0024511Y0113679D01*
X0024600Y0113690D01*
X0024689Y0113697D01*
X0024778Y0113700D01*
X0024867Y0113699D01*
X0024956Y0113694D01*
X0025044Y0113685D01*
X0025133Y0113672D01*
X0025220Y0113655D01*
X0025307Y0113635D01*
X0025393Y0113610D01*
X0025477Y0113582D01*
X0025560Y0113550D01*
X0025642Y0113514D01*
X0025722Y0113475D01*
X0025800Y0113432D01*
X0025876Y0113386D01*
X0025950Y0113336D01*
X0026022Y0113283D01*
X0026091Y0113227D01*
X0026158Y0113168D01*
X0026222Y0113106D01*
X0026283Y0113042D01*
X0026342Y0112974D01*
X0026397Y0112904D01*
X0026449Y0112832D01*
X0026498Y0112757D01*
X0026543Y0112681D01*
X0026585Y0112602D01*
X0026623Y0112522D01*
X0026658Y0112440D01*
X0026689Y0112356D01*
X0026717Y0112271D01*
X0026740Y0112185D01*
X0026760Y0112098D01*
X0026776Y0112011D01*
X0026788Y0111922D01*
X0026796Y0111834D01*
X0026800Y0111745D01*
X0026800Y0111655D01*
X0026796Y0111566D01*
X0026788Y0111478D01*
X0026776Y0111389D01*
X0026760Y0111302D01*
X0026740Y0111215D01*
X0026717Y0111129D01*
X0026689Y0111044D01*
X0026658Y0110960D01*
X0026623Y0110878D01*
X0026585Y0110798D01*
X0026543Y0110719D01*
X0026498Y0110643D01*
X0026449Y0110568D01*
X0026397Y0110496D01*
X0026342Y0110426D01*
X0026283Y0110358D01*
X0026222Y0110294D01*
X0026158Y0110232D01*
X0026091Y0110173D01*
X0026022Y0110117D01*
X0025950Y0110064D01*
X0025876Y0110014D01*
X0025800Y0109968D01*
X0025722Y0109925D01*
X0025642Y0109886D01*
X0025560Y0109850D01*
X0025477Y0109818D01*
X0025393Y0109790D01*
X0025307Y0109765D01*
X0025220Y0109745D01*
X0025133Y0109728D01*
X0025044Y0109715D01*
X0024956Y0109706D01*
X0024867Y0109701D01*
X0024778Y0109700D01*
X0024689Y0109703D01*
X0024600Y0109710D01*
X0024511Y0109721D01*
X0024423Y0109736D01*
X0024336Y0109754D01*
X0024250Y0109777D01*
X0024165Y0109803D01*
X0024081Y0109834D01*
X0023999Y0109868D01*
X0023918Y0109905D01*
X0023839Y0109946D01*
X0023762Y0109991D01*
X0023687Y0110039D01*
X0023614Y0110090D01*
X0023543Y0110144D01*
X0023475Y0110202D01*
X0023410Y0110262D01*
X0023347Y0110326D01*
X0023287Y0110392D01*
X0023230Y0110461D01*
X0023177Y0110532D01*
X0023126Y0110605D01*
X0023079Y0110681D01*
X0023036Y0110758D01*
X0022995Y0110838D01*
X0022959Y0110919D01*
X0022926Y0111002D01*
X0022897Y0111086D01*
X0022871Y0111172D01*
X0022849Y0111258D01*
X0022832Y0111345D01*
X0022818Y0111433D01*
X0022808Y0111522D01*
X0022802Y0111611D01*
X0022800Y0111700D01*
D12*
X0053500Y0110267D02*
X0054267Y0109500D01*
X0055802Y0109500D01*
X0056569Y0110267D01*
X0056569Y0111802D01*
X0055035Y0111802D01*
X0056569Y0113337D02*
X0055802Y0114104D01*
X0054267Y0114104D01*
X0053500Y0113337D01*
X0053500Y0110267D01*
X0058104Y0109500D02*
X0058104Y0114104D01*
X0061173Y0109500D01*
X0061173Y0114104D01*
X0062708Y0114104D02*
X0065010Y0114104D01*
X0065777Y0113337D01*
X0065777Y0110267D01*
X0065010Y0109500D01*
X0062708Y0109500D01*
X0062708Y0114104D01*
X0063475Y0094104D02*
X0062708Y0093337D01*
X0062708Y0090267D01*
X0063475Y0089500D01*
X0065010Y0089500D01*
X0065777Y0090267D01*
X0065777Y0093337D02*
X0065010Y0094104D01*
X0063475Y0094104D01*
X0061173Y0093337D02*
X0060406Y0094104D01*
X0058871Y0094104D01*
X0058104Y0093337D01*
X0058104Y0090267D01*
X0058871Y0089500D01*
X0060406Y0089500D01*
X0061173Y0090267D01*
X0056569Y0091035D02*
X0056569Y0094104D01*
X0053500Y0094104D02*
X0053500Y0091035D01*
X0055035Y0089500D01*
X0056569Y0091035D01*
X0082000Y0182000D02*
X0082000Y0186604D01*
X0083535Y0185069D01*
X0085069Y0186604D01*
X0085069Y0182000D01*
X0086604Y0182767D02*
X0087371Y0182000D01*
X0088906Y0182000D01*
X0089673Y0182767D01*
X0089673Y0185837D01*
X0088906Y0186604D01*
X0087371Y0186604D01*
X0086604Y0185837D01*
X0086604Y0182767D01*
X0091208Y0182000D02*
X0091208Y0186604D01*
X0093510Y0186604D01*
X0094277Y0185837D01*
X0094277Y0182767D01*
X0093510Y0182000D01*
X0091208Y0182000D01*
X0095812Y0182000D02*
X0098881Y0182000D01*
X0097346Y0182000D02*
X0097346Y0186604D01*
X0095812Y0185069D01*
D13*
X0113800Y0093100D02*
X0116800Y0093100D01*
X0119800Y0093100D01*
X0119800Y0090600D02*
X0116800Y0090600D01*
X0113800Y0090600D01*
X0123800Y0090600D02*
X0126800Y0090600D01*
X0129800Y0090600D01*
X0129800Y0093100D02*
X0126800Y0093100D01*
X0123800Y0093100D01*
X0118100Y0034800D02*
X0118100Y0031800D01*
X0118100Y0028800D01*
X0115600Y0028800D02*
X0115600Y0031800D01*
X0115600Y0034800D01*
D14*
X0112655Y0026054D02*
X0111154Y0024553D01*
X0109553Y0025303D02*
X0108802Y0026054D01*
X0107301Y0026054D01*
X0106550Y0025303D01*
X0106550Y0022301D01*
X0107301Y0021550D01*
X0108802Y0021550D01*
X0109553Y0022301D01*
X0111154Y0021550D02*
X0114156Y0021550D01*
X0112655Y0021550D02*
X0112655Y0026054D01*
X0090449Y0020303D02*
X0089698Y0021054D01*
X0088197Y0021054D01*
X0087446Y0020303D01*
X0085845Y0020303D02*
X0085845Y0018802D01*
X0085094Y0018051D01*
X0082842Y0018051D01*
X0082842Y0016550D02*
X0082842Y0021054D01*
X0085094Y0021054D01*
X0085845Y0020303D01*
X0084343Y0018051D02*
X0085845Y0016550D01*
X0087446Y0016550D02*
X0090449Y0019553D01*
X0090449Y0020303D01*
X0090449Y0016550D02*
X0087446Y0016550D01*
X0046449Y0029050D02*
X0043446Y0029050D01*
X0044947Y0029050D02*
X0044947Y0033554D01*
X0043446Y0032053D01*
X0041845Y0032803D02*
X0041094Y0033554D01*
X0038842Y0033554D01*
X0038842Y0029050D01*
X0041094Y0029050D01*
X0041845Y0029801D01*
X0041845Y0032803D01*
X0037241Y0033554D02*
X0034238Y0033554D01*
X0034238Y0029050D01*
X0037241Y0029050D01*
X0035739Y0031302D02*
X0034238Y0031302D01*
X0032637Y0029050D02*
X0029634Y0029050D01*
X0029634Y0033554D01*
X0032546Y0057842D02*
X0032546Y0060094D01*
X0033297Y0060845D01*
X0034798Y0060845D01*
X0035549Y0060094D01*
X0035549Y0057842D01*
X0037050Y0057842D02*
X0032546Y0057842D01*
X0034047Y0062446D02*
X0032546Y0063947D01*
X0037050Y0063947D01*
X0037050Y0062446D02*
X0037050Y0065449D01*
X0037050Y0060845D02*
X0035549Y0059343D01*
X0026550Y0084550D02*
X0026550Y0086819D01*
X0026550Y0085684D02*
X0023147Y0085684D01*
X0024281Y0084550D01*
X0023714Y0104550D02*
X0023147Y0105117D01*
X0023147Y0106251D01*
X0023714Y0106819D01*
X0024281Y0106819D01*
X0026550Y0104550D01*
X0026550Y0106819D01*
X0051800Y0130225D02*
X0051800Y0260225D01*
X0141800Y0260225D01*
X0141800Y0130225D01*
X0051800Y0130225D01*
X0091546Y0137050D02*
X0091546Y0139302D01*
X0092297Y0140053D01*
X0093798Y0140053D01*
X0094549Y0139302D01*
X0094549Y0137050D01*
X0096050Y0137050D02*
X0091546Y0137050D01*
X0094549Y0138551D02*
X0096050Y0140053D01*
X0095299Y0141654D02*
X0096050Y0142405D01*
X0096050Y0143906D01*
X0095299Y0144656D01*
X0093798Y0144656D01*
X0093047Y0143906D01*
X0093047Y0143155D01*
X0093798Y0141654D01*
X0091546Y0141654D01*
X0091546Y0144656D01*
X0122546Y0137906D02*
X0124798Y0135654D01*
X0124798Y0138656D01*
X0127050Y0137906D02*
X0122546Y0137906D01*
X0123297Y0134053D02*
X0124798Y0134053D01*
X0125549Y0133302D01*
X0125549Y0131050D01*
X0127050Y0131050D02*
X0122546Y0131050D01*
X0122546Y0133302D01*
X0123297Y0134053D01*
X0125549Y0132551D02*
X0127050Y0134053D01*
X0153546Y0145842D02*
X0153546Y0148094D01*
X0154297Y0148845D01*
X0155798Y0148845D01*
X0156549Y0148094D01*
X0156549Y0145842D01*
X0158050Y0145842D02*
X0153546Y0145842D01*
X0156549Y0147343D02*
X0158050Y0148845D01*
X0157299Y0150446D02*
X0158050Y0151197D01*
X0158050Y0152698D01*
X0157299Y0153449D01*
X0156549Y0153449D01*
X0155798Y0152698D01*
X0155798Y0151947D01*
X0155798Y0152698D02*
X0155047Y0153449D01*
X0154297Y0153449D01*
X0153546Y0152698D01*
X0153546Y0151197D01*
X0154297Y0150446D01*
X0160546Y0151447D02*
X0165050Y0151447D01*
X0165050Y0149946D02*
X0165050Y0152949D01*
X0162047Y0149946D02*
X0160546Y0151447D01*
X0179546Y0124449D02*
X0180297Y0122947D01*
X0181798Y0121446D01*
X0181798Y0123698D01*
X0182549Y0124449D01*
X0183299Y0124449D01*
X0184050Y0123698D01*
X0184050Y0122197D01*
X0183299Y0121446D01*
X0181798Y0121446D01*
X0189297Y0143238D02*
X0190047Y0143238D01*
X0190798Y0143989D01*
X0190798Y0145490D01*
X0191549Y0146241D01*
X0192299Y0146241D01*
X0193050Y0145490D01*
X0193050Y0143989D01*
X0192299Y0143238D01*
X0189297Y0143238D02*
X0188546Y0143989D01*
X0188546Y0145490D01*
X0189297Y0146241D01*
X0188546Y0147842D02*
X0191549Y0147842D01*
X0193050Y0149343D01*
X0191549Y0150845D01*
X0188546Y0150845D01*
X0190047Y0152446D02*
X0188546Y0153947D01*
X0193050Y0153947D01*
X0193050Y0152446D02*
X0193050Y0155449D01*
X0139698Y0096554D02*
X0140449Y0095803D01*
X0140449Y0095053D01*
X0137446Y0092050D01*
X0140449Y0092050D01*
X0139698Y0096554D02*
X0138197Y0096554D01*
X0137446Y0095803D01*
X0135845Y0095803D02*
X0135094Y0096554D01*
X0133593Y0096554D01*
X0132842Y0095803D01*
X0132842Y0092801D01*
X0133593Y0092050D01*
X0135094Y0092050D01*
X0135845Y0092801D01*
X0108949Y0093301D02*
X0108198Y0092550D01*
X0106697Y0092550D01*
X0105946Y0093301D01*
X0104345Y0093301D02*
X0103594Y0092550D01*
X0102093Y0092550D01*
X0101342Y0093301D01*
X0101342Y0096303D01*
X0102093Y0097054D01*
X0103594Y0097054D01*
X0104345Y0096303D01*
X0105946Y0096303D02*
X0106697Y0097054D01*
X0108198Y0097054D01*
X0108949Y0096303D01*
X0108949Y0095553D01*
X0108198Y0094802D01*
X0108949Y0094051D01*
X0108949Y0093301D01*
X0108198Y0094802D02*
X0107447Y0094802D01*
D15*
X0064350Y0065096D02*
X0064350Y0060892D01*
X0064350Y0062994D02*
X0058045Y0062994D01*
X0060146Y0060892D01*
X0059096Y0058651D02*
X0058045Y0057600D01*
X0058045Y0055498D01*
X0059096Y0054447D01*
X0063299Y0054447D01*
X0064350Y0055498D01*
X0064350Y0057600D01*
X0063299Y0058651D01*
X0064350Y0052252D02*
X0064350Y0050150D01*
X0064350Y0051201D02*
X0058045Y0051201D01*
X0058045Y0050150D02*
X0058045Y0052252D01*
X0049450Y0123150D02*
X0043145Y0127354D01*
X0045246Y0129595D02*
X0043145Y0131697D01*
X0049450Y0131697D01*
X0049450Y0129595D02*
X0049450Y0133799D01*
X0049450Y0127354D02*
X0043145Y0123150D01*
D16*
X0058859Y0023035D02*
X0058766Y0022867D01*
X0058670Y0022701D01*
X0058570Y0022537D01*
X0058465Y0022376D01*
X0058357Y0022217D01*
X0058245Y0022061D01*
X0058129Y0021907D01*
X0058010Y0021757D01*
X0057887Y0021609D01*
X0057761Y0021464D01*
X0057631Y0021323D01*
X0057498Y0021184D01*
X0057361Y0021049D01*
X0057221Y0020917D01*
X0057079Y0020789D01*
X0056933Y0020664D01*
X0056784Y0020542D01*
X0056632Y0020424D01*
X0056478Y0020310D01*
X0056320Y0020200D01*
X0056161Y0020093D01*
X0055998Y0019990D01*
X0055833Y0019891D01*
X0055666Y0019796D01*
X0055497Y0019706D01*
X0055326Y0019619D01*
X0055152Y0019536D01*
X0054977Y0019458D01*
X0054799Y0019384D01*
X0054620Y0019314D01*
X0054440Y0019248D01*
X0054258Y0019187D01*
X0054074Y0019130D01*
X0053889Y0019078D01*
X0053703Y0019030D01*
X0053516Y0018986D01*
X0053328Y0018947D01*
X0053139Y0018913D01*
X0052949Y0018883D01*
X0052759Y0018858D01*
X0052568Y0018837D01*
X0052376Y0018821D01*
X0052184Y0018809D01*
X0051992Y0018802D01*
X0051800Y0018800D01*
X0058746Y0030769D02*
X0058647Y0030938D01*
X0058543Y0031104D01*
X0058436Y0031268D01*
X0058325Y0031429D01*
X0058210Y0031587D01*
X0058091Y0031742D01*
X0057968Y0031895D01*
X0057842Y0032044D01*
X0057712Y0032190D01*
X0057578Y0032333D01*
X0057441Y0032473D01*
X0057301Y0032609D01*
X0057157Y0032742D01*
X0057010Y0032871D01*
X0056860Y0032997D01*
X0056707Y0033118D01*
X0056551Y0033237D01*
X0056392Y0033351D01*
X0056231Y0033461D01*
X0056066Y0033567D01*
X0055900Y0033670D01*
X0055730Y0033768D01*
X0055559Y0033862D01*
X0055385Y0033952D01*
X0055209Y0034037D01*
X0055031Y0034119D01*
X0054851Y0034195D01*
X0054669Y0034268D01*
X0054486Y0034336D01*
X0054301Y0034399D01*
X0054114Y0034458D01*
X0053926Y0034512D01*
X0053737Y0034562D01*
X0053547Y0034607D01*
X0053355Y0034647D01*
X0053163Y0034683D01*
X0052970Y0034714D01*
X0052776Y0034740D01*
X0052581Y0034762D01*
X0052386Y0034778D01*
X0052191Y0034790D01*
X0051995Y0034798D01*
X0051800Y0034800D01*
X0051607Y0034798D01*
X0051414Y0034791D01*
X0051222Y0034779D01*
X0051029Y0034763D01*
X0050837Y0034742D01*
X0050646Y0034716D01*
X0050456Y0034686D01*
X0050266Y0034651D01*
X0050077Y0034612D01*
X0049889Y0034568D01*
X0049702Y0034520D01*
X0049516Y0034467D01*
X0049332Y0034410D01*
X0049149Y0034348D01*
X0048968Y0034282D01*
X0048788Y0034211D01*
X0048610Y0034137D01*
X0048434Y0034058D01*
X0048260Y0033974D01*
X0048088Y0033887D01*
X0047918Y0033795D01*
X0047751Y0033699D01*
X0047585Y0033600D01*
X0047422Y0033496D01*
X0047262Y0033389D01*
X0047105Y0033277D01*
X0046950Y0033162D01*
X0046798Y0033043D01*
X0046649Y0032921D01*
X0046502Y0032795D01*
X0046359Y0032665D01*
X0046219Y0032532D01*
X0046083Y0032396D01*
X0045949Y0032256D01*
X0045820Y0032114D01*
X0045693Y0031968D01*
X0045654Y0021678D02*
X0045781Y0021530D01*
X0045911Y0021385D01*
X0046044Y0021244D01*
X0046181Y0021105D01*
X0046321Y0020970D01*
X0046465Y0020839D01*
X0046612Y0020711D01*
X0046761Y0020586D01*
X0046914Y0020465D01*
X0047069Y0020348D01*
X0047228Y0020235D01*
X0047389Y0020126D01*
X0047553Y0020021D01*
X0047719Y0019919D01*
X0047888Y0019822D01*
X0048058Y0019729D01*
X0048232Y0019640D01*
X0048407Y0019555D01*
X0048584Y0019475D01*
X0048763Y0019399D01*
X0048944Y0019327D01*
X0049127Y0019260D01*
X0049311Y0019197D01*
X0049497Y0019139D01*
X0049684Y0019085D01*
X0049872Y0019036D01*
X0050062Y0018991D01*
X0050252Y0018951D01*
X0050444Y0018916D01*
X0050636Y0018885D01*
X0050829Y0018859D01*
X0051023Y0018838D01*
X0051217Y0018821D01*
X0051411Y0018809D01*
X0051605Y0018802D01*
X0051800Y0018800D01*
D17*
X0036800Y0101800D03*
M02*
