%
M48
M72
T01C0.03150
T02C0.03200
T03C0.03543
T04C0.04000
T05C0.05200
T06C0.12598
%
T01
X76800Y156800
X91800Y111800
X76800Y91800
X76800Y51800
X46800Y51800
X136800Y101800
X166800Y101800
X176800Y86800
X191800Y86800
X166800Y121800
X156800Y141800
X161800Y186800
T02
X26800Y41800
X46800Y41800
X56800Y41800
X66800Y41800
X76800Y41800
X86800Y41800
X96800Y41800
X106800Y41800
X106800Y31800
X96800Y26800
X116800Y41800
X126800Y41800
X126800Y31800
X136800Y41800
X146800Y41800
X156800Y41800
X166800Y41800
X176800Y41800
X176800Y71800
X166800Y71800
X156800Y71800
X146800Y71800
X136800Y71800
X126800Y71800
X126800Y81800
X116800Y81800
X116800Y71800
X106800Y71800
X96800Y71800
X86800Y71800
X76800Y71800
X66800Y71800
X56800Y71800
X46800Y71800
X26800Y71800
X46800Y26800
X56800Y26800
X66800Y26800
X116800Y101800
X126800Y101800
X116800Y121800
X101800Y131800
X116800Y151800
X101800Y161800
X146800Y156800
X146800Y126800
T03
X61800Y176800
X61800Y166800
X61800Y156800
X61800Y146800
X61800Y136800
X131800Y136800
X131800Y146800
X131800Y156800
X131800Y166800
X131800Y176800
X131800Y186800
T04
X171800Y151800
X171800Y141800
X171800Y131800
X181800Y131800
X181800Y141800
X181800Y151800
T05
X36800Y91900
X36800Y111700
T06
X23611Y21800
X23611Y196839
X196839Y196839
X196839Y21800
M30
